<svg xmlns="http://www.w3.org/2000/svg" viewBox="0 0 24 24" role="img" aria-hidden="true">
  <path fill="#0f6cbd" d="M7.53 2.5c1.36.74 2.06 2.3 1.76 3.82l-1.24 6.19c-.33 1.66-1.63 3-3.28 3.39l-.77.18.16-.77c.35-1.71.91-3.75 1.39-5.92.31-1.43.7-2.7 1.07-3.97.43-1.42 1.36-2.43 2.91-2.92Z"/>
  <path fill="#1f89db" d="M12.05 3.16c1.44.53 2.4 1.93 2.36 3.5l-.18 6.31c-.05 1.69-1.04 3.22-2.53 3.93l-.69.33-.01-.79c-.02-1.74.11-3.9.11-6.12 0-1.46.07-2.79.15-4.11.1-1.48.78-2.68 2.14-3.05Z"/>
  <path fill="#58b2f5" d="M16.73 4.86c1.41.06 2.63 1.05 3.09 2.48l1.72 5.34c.52 1.61.17 3.38-.89 4.63l-.49.57-.31-.69c-.7-1.54-1.41-3.51-2.26-5.51-.56-1.31-1.01-2.53-1.45-3.76-.49-1.38-.27-2.73.59-3.72Z"/>
  <path fill="#0a4f8a" d="M9.4 14.83c.73-.32 1.5-.46 2.3-.39.71.06 1.4.28 2.05.61 1.13.58 2.22 1.39 3.58 1.58.55.08 1.11.04 1.65-.06-.47 1.27-1.39 2.33-2.67 3.06-1.56.9-3.6 1.3-5.4 1.14-2.49-.23-4.72-1.78-5.91-4 .79.25 1.62.34 2.44.2.71-.12 1.38-.43 1.96-.86Z"/>
</svg>
