<svg xmlns="http://www.w3.org/2000/svg" viewBox="0 0 395 889" width="395" height="889" role="img" aria-label="Silvery cartoon metal crab pincer facing up">
<path d="M 88.0 761.0 L 89.0 783.0 L 93.0 802.0 L 106.0 828.0 L 115.0 838.0 L 131.0 850.0 L 147.0 857.0 L 165.0 861.0 L 199.0 859.0 L 218.0 853.0 L 234.0 844.0 L 254.0 822.0 L 264.0 798.0 L 268.0 770.0 L 250.0 780.0 L 218.0 787.0 L 238.0 784.0 L 267.0 773.0 L 266.0 787.0 L 261.0 806.0 L 259.0 806.0 L 259.0 801.0 L 257.0 802.0 L 259.0 785.0 L 252.0 784.0 L 239.0 793.0 L 222.0 825.0 L 227.0 819.0 L 240.0 792.0 L 251.0 785.0 L 255.0 785.0 L 259.0 792.0 L 252.0 810.0 L 240.0 820.0 L 224.0 827.0 L 241.0 820.0 L 249.0 814.0 L 255.0 816.0 L 250.0 827.0 L 234.0 843.0 L 233.0 841.0 L 225.0 849.0 L 205.0 857.0 L 192.0 860.0 L 168.0 861.0 L 151.0 858.0 L 133.0 851.0 L 118.0 840.0 L 122.0 840.0 L 115.0 837.0 L 108.0 827.0 L 104.0 825.0 L 106.0 824.0 L 101.0 814.0 L 101.0 805.0 L 100.0 809.0 L 104.0 824.0 L 92.0 798.0 Z M 251.0 664.0 L 237.0 672.0 L 232.0 681.0 L 231.0 691.0 L 234.0 701.0 L 241.0 709.0 L 252.0 713.0 L 259.0 713.0 L 268.0 709.0 L 275.0 701.0 L 278.0 692.0 L 278.0 682.0 L 270.0 668.0 L 261.0 664.0 Z M 251.0 669.0 L 263.0 671.0 L 271.0 681.0 L 272.0 687.0 L 269.0 696.0 L 259.0 704.0 L 246.0 702.0 L 238.0 691.0 L 240.0 678.0 Z M 292.0 640.0 L 269.0 651.0 L 241.0 659.0 L 270.0 651.0 L 289.0 641.0 L 292.0 644.0 Z M 143.0 565.0 L 132.0 569.0 L 127.0 574.0 L 122.0 583.0 L 121.0 592.0 L 124.0 603.0 L 132.0 613.0 L 140.0 617.0 L 150.0 618.0 L 159.0 615.0 L 168.0 607.0 L 172.0 598.0 L 172.0 585.0 L 162.0 570.0 L 154.0 566.0 Z M 141.0 571.0 L 156.0 573.0 L 165.0 585.0 L 165.0 594.0 L 162.0 601.0 L 152.0 609.0 L 138.0 607.0 L 133.0 603.0 L 128.0 593.0 L 131.0 579.0 Z M 229.0 474.0 L 194.0 477.0 L 177.0 484.0 L 168.0 499.0 L 163.0 536.0 L 168.0 500.0 L 171.0 492.0 L 179.0 483.0 L 195.0 477.0 Z M 162.0 416.0 L 168.0 448.0 L 174.0 459.0 L 185.0 467.0 L 213.0 470.0 L 190.0 466.0 L 184.0 462.0 L 190.0 466.0 L 186.0 467.0 L 173.0 457.0 L 168.0 447.0 Z M 159.0 410.0 L 159.0 421.0 L 154.0 441.0 L 158.0 427.0 L 158.0 440.0 L 152.0 457.0 L 138.0 468.0 L 121.0 471.0 L 141.0 467.0 L 153.0 456.0 L 158.0 442.0 Z M 324.0 355.0 L 320.0 384.0 L 312.0 410.0 L 291.0 450.0 L 280.0 464.0 L 254.0 488.0 L 231.0 501.0 L 216.0 506.0 L 231.0 501.0 L 254.0 488.0 L 276.0 469.0 L 292.0 449.0 L 314.0 405.0 L 321.0 380.0 Z M 285.0 76.0 L 296.0 113.0 L 298.0 130.0 L 296.0 113.0 L 290.0 92.0 L 291.0 88.0 L 309.0 124.0 L 339.0 209.0 L 348.0 245.0 L 354.0 294.0 L 356.0 342.0 L 352.0 407.0 L 346.0 437.0 L 336.0 463.0 L 323.0 485.0 L 318.0 488.0 L 321.0 487.0 L 308.0 504.0 L 290.0 521.0 L 288.0 518.0 L 287.0 520.0 L 289.0 521.0 L 287.0 523.0 L 285.0 521.0 L 281.0 523.0 L 283.0 525.0 L 265.0 536.0 L 243.0 544.0 L 217.0 548.0 L 240.0 545.0 L 266.0 536.0 L 287.0 524.0 L 308.0 505.0 L 319.0 492.0 L 337.0 462.0 L 346.0 438.0 L 352.0 408.0 L 356.0 364.0 L 356.0 326.0 L 353.0 280.0 L 348.0 245.0 L 340.0 212.0 L 318.0 146.0 L 301.0 106.0 Z M 142.0 46.0 L 116.0 74.0 L 133.0 56.0 L 134.0 58.0 L 131.0 63.0 Z M 170.0 4.0 L 158.0 8.0 L 138.0 20.0 L 121.0 34.0 L 105.0 53.0 L 99.0 57.0 L 106.0 77.0 L 103.0 70.0 L 131.0 42.0 L 152.0 27.0 L 164.0 21.0 L 168.0 22.0 L 142.0 63.0 L 131.0 90.0 L 146.0 56.0 L 166.0 27.0 L 167.0 29.0 L 152.0 66.0 L 146.0 94.0 L 130.0 94.0 L 111.0 89.0 L 123.0 93.0 L 156.0 97.0 L 120.0 102.0 L 104.0 112.0 L 97.0 129.0 L 95.0 163.0 L 93.0 163.0 L 93.0 161.0 L 94.0 165.0 L 98.0 144.0 L 96.0 153.0 L 97.0 129.0 L 105.0 111.0 L 121.0 102.0 L 151.0 99.0 L 151.0 101.0 L 146.0 101.0 L 143.0 106.0 L 144.0 119.0 L 150.0 134.0 L 131.0 164.0 L 134.0 177.0 L 146.0 202.0 L 131.0 229.0 L 130.0 236.0 L 145.0 256.0 L 161.0 272.0 L 152.0 294.0 L 152.0 308.0 L 184.0 340.0 L 180.0 364.0 L 181.0 386.0 L 187.0 403.0 L 199.0 421.0 L 196.0 424.0 L 179.0 407.0 L 173.0 395.0 L 170.0 381.0 L 172.0 353.0 L 170.0 363.0 L 172.0 392.0 L 180.0 409.0 L 194.0 423.0 L 184.0 437.0 L 179.0 421.0 L 153.0 392.0 L 131.0 353.0 L 117.0 314.0 L 108.0 264.0 L 113.0 299.0 L 124.0 336.0 L 147.0 384.0 L 181.0 425.0 L 182.0 440.0 L 177.0 455.0 L 183.0 460.0 L 208.0 436.0 L 220.0 418.0 L 228.0 400.0 L 234.0 380.0 L 238.0 355.0 L 237.0 312.0 L 250.0 299.0 L 260.0 304.0 L 258.0 295.0 L 247.0 272.0 L 247.0 265.0 L 257.0 255.0 L 269.0 248.0 L 259.0 226.0 L 258.0 219.0 L 266.0 209.0 L 276.0 202.0 L 278.0 203.0 L 265.0 176.0 L 265.0 170.0 L 280.0 159.0 L 270.0 128.0 L 271.0 120.0 L 279.0 112.0 L 268.0 48.0 L 271.0 45.0 L 297.0 73.0 L 323.0 119.0 L 348.0 184.0 L 363.0 243.0 L 371.0 308.0 L 371.0 369.0 L 363.0 422.0 L 356.0 448.0 L 344.0 478.0 L 323.0 514.0 L 290.0 547.0 L 269.0 560.0 L 250.0 568.0 L 216.0 576.0 L 207.0 575.0 L 199.0 554.0 L 182.0 534.0 L 176.0 522.0 L 175.0 503.0 L 177.0 495.0 L 191.0 482.0 L 183.0 487.0 L 177.0 495.0 L 173.0 516.0 L 168.0 521.0 L 168.0 536.0 L 163.0 540.0 L 160.0 537.0 L 157.0 496.0 L 148.0 483.0 L 130.0 478.0 L 146.0 482.0 L 155.0 491.0 L 159.0 508.0 L 159.0 518.0 L 156.0 525.0 L 152.0 504.0 L 147.0 493.0 L 136.0 484.0 L 144.0 492.0 L 143.0 494.0 L 124.0 491.0 L 143.0 494.0 L 146.0 499.0 L 144.0 513.0 L 142.0 496.0 L 143.0 501.0 L 141.0 505.0 L 131.0 509.0 L 124.0 507.0 L 146.0 515.0 L 143.0 527.0 L 139.0 528.0 L 118.0 521.0 L 97.0 509.0 L 66.0 478.0 L 47.0 449.0 L 30.0 406.0 L 22.0 369.0 L 18.0 321.0 L 21.0 264.0 L 29.0 220.0 L 45.0 171.0 L 60.0 138.0 L 74.0 114.0 L 68.0 108.0 L 59.0 104.0 L 60.0 108.0 L 44.0 137.0 L 29.0 173.0 L 13.0 227.0 L 5.0 278.0 L 5.0 352.0 L 16.0 414.0 L 27.0 445.0 L 38.0 466.0 L 30.0 486.0 L 31.0 505.0 L 28.0 523.0 L 29.0 563.0 L 36.0 596.0 L 42.0 609.0 L 48.0 616.0 L 43.0 645.0 L 44.0 684.0 L 53.0 719.0 L 68.0 742.0 L 65.0 780.0 L 68.0 803.0 L 76.0 829.0 L 83.0 843.0 L 100.0 865.0 L 113.0 876.0 L 127.0 884.0 L 233.0 884.0 L 251.0 873.0 L 269.0 855.0 L 282.0 834.0 L 291.0 808.0 L 295.0 782.0 L 293.0 744.0 L 308.0 720.0 L 318.0 682.0 L 320.0 645.0 L 314.0 615.0 L 326.0 596.0 L 332.0 577.0 L 334.0 550.0 L 331.0 535.0 L 351.0 507.0 L 365.0 478.0 L 377.0 442.0 L 384.0 410.0 L 390.0 358.0 L 389.0 301.0 L 383.0 254.0 L 374.0 212.0 L 357.0 157.0 L 342.0 120.0 L 323.0 84.0 L 301.0 54.0 L 276.0 32.0 L 260.0 29.0 L 254.0 34.0 L 253.0 49.0 L 264.0 109.0 L 256.0 117.0 L 255.0 124.0 L 264.0 154.0 L 251.0 168.0 L 251.0 174.0 L 261.0 198.0 L 243.0 215.0 L 243.0 220.0 L 252.0 243.0 L 232.0 264.0 L 239.0 288.0 L 220.0 307.0 L 220.0 332.0 L 198.0 322.0 L 175.0 303.0 L 173.0 296.0 L 181.0 278.0 L 182.0 269.0 L 166.0 254.0 L 150.0 234.0 L 165.0 199.0 L 149.0 169.0 L 149.0 165.0 L 166.0 137.0 L 166.0 130.0 L 159.0 110.0 L 171.0 57.0 L 184.0 19.0 L 183.0 9.0 L 179.0 5.0 Z M 79.0 753.0 L 81.0 752.0 L 89.0 758.0 L 123.0 773.0 L 144.0 778.0 L 172.0 781.0 L 208.0 780.0 L 231.0 776.0 L 251.0 770.0 L 278.0 756.0 L 279.0 777.0 L 274.0 807.0 L 270.0 819.0 L 256.0 843.0 L 244.0 855.0 L 229.0 865.0 L 213.0 872.0 L 191.0 877.0 L 155.0 875.0 L 137.0 869.0 L 120.0 860.0 L 101.0 842.0 L 88.0 820.0 L 80.0 790.0 Z M 303.0 625.0 L 305.0 641.0 L 304.0 667.0 L 301.0 686.0 L 293.0 711.0 L 284.0 726.0 L 273.0 738.0 L 258.0 749.0 L 237.0 758.0 L 197.0 766.0 L 162.0 766.0 L 130.0 760.0 L 108.0 752.0 L 86.0 739.0 L 74.0 727.0 L 64.0 708.0 L 57.0 670.0 L 57.0 639.0 L 60.0 626.0 L 88.0 642.0 L 111.0 650.0 L 141.0 655.0 L 179.0 656.0 L 234.0 650.0 L 266.0 641.0 L 301.0 624.0 Z M 268.0 611.0 L 270.0 608.0 L 275.0 609.0 L 270.0 612.0 Z M 319.0 546.0 L 320.0 562.0 L 316.0 580.0 L 308.0 596.0 L 293.0 611.0 L 274.0 622.0 L 249.0 631.0 L 214.0 638.0 L 184.0 639.0 L 194.0 630.0 L 203.0 617.0 L 210.0 591.0 L 247.0 584.0 L 276.0 574.0 L 307.0 554.0 L 309.0 572.0 L 303.0 586.0 L 291.0 599.0 L 282.0 605.0 L 280.0 602.0 L 287.0 599.0 L 284.0 600.0 L 282.0 598.0 L 283.0 593.0 L 277.0 593.0 L 275.0 598.0 L 273.0 598.0 L 278.0 577.0 L 272.0 599.0 L 266.0 610.0 L 269.0 612.0 L 259.0 617.0 L 288.0 602.0 L 302.0 588.0 L 309.0 573.0 L 307.0 554.0 L 317.0 545.0 Z M 50.0 473.0 L 73.0 506.0 L 95.0 524.0 L 123.0 537.0 L 165.0 542.0 L 175.0 547.0 L 186.0 558.0 L 194.0 574.0 L 197.0 598.0 L 191.0 617.0 L 180.0 630.0 L 166.0 638.0 L 157.0 638.0 L 178.0 627.0 L 188.0 613.0 L 176.0 628.0 L 156.0 638.0 L 132.0 639.0 L 115.0 636.0 L 78.0 622.0 L 55.0 604.0 L 49.0 594.0 L 42.0 552.0 L 44.0 491.0 Z M 237.0 330.0 L 238.0 353.0 L 233.0 384.0 L 221.0 416.0 L 209.0 433.0 L 208.0 431.0 L 217.0 415.0 L 229.0 380.0 Z M 180.0 329.0 L 219.0 346.0 L 218.0 348.0 L 209.0 348.0 L 196.0 353.0 L 210.0 348.0 L 219.0 349.0 L 215.0 374.0 L 205.0 403.0 L 199.0 393.0 L 195.0 380.0 L 193.0 348.0 L 187.0 343.0 L 187.0 339.0 L 180.0 335.0 Z" fill="#000002" fill-rule="evenodd"/>
<path d="M 266.0 773.0 L 238.0 785.0 L 222.0 786.0 L 223.0 788.0 L 216.0 787.0 L 216.0 789.0 L 209.0 788.0 L 209.0 790.0 L 202.0 789.0 L 205.0 791.0 L 203.0 798.0 L 202.0 796.0 L 202.0 807.0 L 200.0 812.0 L 198.0 812.0 L 199.0 814.0 L 197.0 814.0 L 199.0 816.0 L 186.0 828.0 L 184.0 834.0 L 185.0 842.0 L 180.0 850.0 L 164.0 854.0 L 163.0 851.0 L 158.0 853.0 L 158.0 850.0 L 155.0 852.0 L 155.0 849.0 L 152.0 851.0 L 152.0 848.0 L 147.0 849.0 L 142.0 844.0 L 140.0 849.0 L 136.0 849.0 L 143.0 853.0 L 141.0 855.0 L 145.0 853.0 L 145.0 855.0 L 151.0 855.0 L 150.0 858.0 L 155.0 856.0 L 154.0 859.0 L 157.0 857.0 L 168.0 860.0 L 192.0 859.0 L 214.0 853.0 L 225.0 848.0 L 238.0 838.0 L 239.0 840.0 L 255.0 817.0 L 249.0 815.0 L 256.0 807.0 L 259.0 808.0 L 265.0 787.0 Z M 215.0 832.0 L 216.0 835.0 L 212.0 839.0 L 210.0 838.0 L 209.0 841.0 L 205.0 841.0 L 205.0 843.0 L 197.0 845.0 L 188.0 843.0 L 188.0 840.0 L 193.0 835.0 L 197.0 835.0 L 197.0 833.0 Z M 256.0 784.0 L 260.0 789.0 L 260.0 796.0 L 253.0 811.0 L 241.0 821.0 L 235.0 824.0 L 232.0 823.0 L 232.0 825.0 L 224.0 828.0 L 222.0 826.0 L 223.0 822.0 L 229.0 816.0 L 228.0 814.0 L 230.0 814.0 L 229.0 812.0 L 231.0 812.0 L 230.0 810.0 L 234.0 806.0 L 233.0 803.0 L 238.0 793.0 L 244.0 787.0 L 252.0 783.0 Z M 92.0 768.0 L 102.0 774.0 L 100.0 777.0 L 92.0 777.0 L 91.0 771.0 L 90.0 782.0 L 92.0 782.0 L 90.0 790.0 L 93.0 789.0 L 92.0 799.0 L 94.0 799.0 L 97.0 806.0 L 95.0 808.0 L 99.0 811.0 L 97.0 813.0 L 100.0 813.0 L 100.0 805.0 L 104.0 804.0 L 109.0 813.0 L 111.0 811.0 L 111.0 814.0 L 114.0 815.0 L 114.0 820.0 L 115.0 817.0 L 110.0 808.0 L 109.0 799.0 L 107.0 800.0 L 108.0 796.0 L 106.0 796.0 L 108.0 792.0 L 105.0 792.0 L 107.0 788.0 L 104.0 789.0 L 106.0 783.0 L 104.0 785.0 L 103.0 782.0 L 105.0 777.0 L 103.0 781.0 L 101.0 775.0 L 104.0 775.0 L 104.0 769.0 L 103.0 774.0 Z M 73.0 667.0 L 74.0 688.0 L 86.0 721.0 L 88.0 720.0 L 97.0 729.0 L 99.0 724.0 L 91.0 718.0 L 91.0 715.0 L 93.0 715.0 L 88.0 712.0 L 89.0 710.0 L 86.0 709.0 L 88.0 707.0 L 85.0 707.0 L 85.0 704.0 L 82.0 702.0 L 84.0 700.0 L 81.0 700.0 L 83.0 698.0 L 81.0 699.0 L 81.0 696.0 L 79.0 696.0 L 81.0 693.0 L 79.0 694.0 L 79.0 691.0 L 77.0 691.0 L 79.0 687.0 L 76.0 687.0 L 78.0 682.0 L 76.0 685.0 L 74.0 683.0 Z M 291.0 642.0 L 288.0 641.0 L 287.0 644.0 L 275.0 650.0 L 252.0 657.0 L 253.0 659.0 L 248.0 657.0 L 248.0 660.0 L 244.0 658.0 L 246.0 661.0 L 240.0 659.0 L 239.0 661.0 L 236.0 660.0 L 236.0 663.0 L 231.0 661.0 L 225.0 665.0 L 216.0 665.0 L 215.0 667.0 L 206.0 665.0 L 203.0 667.0 L 214.0 667.0 L 217.0 669.0 L 216.0 673.0 L 217.0 670.0 L 219.0 674.0 L 218.0 688.0 L 216.0 688.0 L 217.0 696.0 L 215.0 696.0 L 216.0 701.0 L 214.0 701.0 L 215.0 705.0 L 213.0 705.0 L 213.0 711.0 L 211.0 711.0 L 212.0 713.0 L 202.0 730.0 L 189.0 742.0 L 180.0 747.0 L 191.0 740.0 L 192.0 742.0 L 198.0 738.0 L 200.0 739.0 L 197.0 741.0 L 201.0 740.0 L 220.0 727.0 L 232.0 728.0 L 233.0 731.0 L 229.0 736.0 L 219.0 741.0 L 202.0 742.0 L 209.0 744.0 L 200.0 745.0 L 198.0 748.0 L 189.0 748.0 L 206.0 748.0 L 210.0 750.0 L 239.0 742.0 L 242.0 739.0 L 244.0 740.0 L 244.0 736.0 L 251.0 736.0 L 253.0 731.0 L 248.0 735.0 L 243.0 731.0 L 253.0 722.0 L 257.0 714.0 L 246.0 713.0 L 235.0 704.0 L 229.0 689.0 L 229.0 685.0 L 231.0 685.0 L 230.0 680.0 L 232.0 680.0 L 233.0 674.0 L 236.0 673.0 L 234.0 672.0 L 241.0 665.0 L 265.0 658.0 L 264.0 660.0 L 272.0 661.0 L 279.0 669.0 L 286.0 686.0 L 281.0 655.0 L 282.0 649.0 L 290.0 644.0 L 292.0 649.0 Z M 191.0 605.0 L 188.0 612.0 L 190.0 613.0 L 185.0 617.0 L 185.0 620.0 L 183.0 620.0 L 178.0 628.0 L 172.0 630.0 L 174.0 632.0 L 172.0 634.0 L 171.0 632.0 L 170.0 635.0 L 155.0 639.0 L 166.0 637.0 L 180.0 629.0 L 188.0 620.0 L 187.0 618.0 L 190.0 617.0 L 188.0 616.0 Z M 308.0 554.0 L 297.0 564.0 L 297.0 583.0 L 295.0 588.0 L 294.0 584.0 L 290.0 597.0 L 293.0 566.0 L 295.0 566.0 L 295.0 571.0 L 295.0 565.0 L 274.0 575.0 L 273.0 584.0 L 269.0 585.0 L 263.0 601.0 L 251.0 617.0 L 252.0 604.0 L 252.0 611.0 L 245.0 621.0 L 221.0 627.0 L 226.0 617.0 L 219.0 628.0 L 261.0 617.0 L 261.0 615.0 L 290.0 598.0 L 292.0 599.0 L 299.0 592.0 L 298.0 590.0 L 306.0 578.0 Z M 278.0 576.0 L 273.0 601.0 L 275.0 600.0 L 276.0 603.0 L 273.0 599.0 L 275.0 594.0 L 280.0 591.0 L 284.0 593.0 L 283.0 598.0 L 287.0 600.0 L 267.0 612.0 L 265.0 610.0 L 271.0 599.0 L 272.0 588.0 L 274.0 589.0 Z M 286.0 527.0 L 281.0 530.0 L 284.0 548.0 L 281.0 531.0 L 284.0 531.0 L 286.0 537.0 L 288.0 532.0 L 285.0 532.0 Z M 206.0 477.0 L 201.0 477.0 L 202.0 479.0 L 195.0 478.0 L 195.0 480.0 L 189.0 478.0 L 190.0 481.0 L 182.0 482.0 L 179.0 484.0 L 181.0 485.0 L 180.0 487.0 L 173.0 488.0 L 175.0 490.0 L 171.0 494.0 L 172.0 497.0 L 169.0 496.0 L 171.0 498.0 L 170.0 502.0 L 167.0 503.0 L 165.0 534.0 L 161.0 537.0 L 163.0 539.0 L 167.0 536.0 L 167.0 521.0 L 172.0 516.0 L 174.0 497.0 L 177.0 498.0 L 175.0 495.0 L 178.0 495.0 L 176.0 493.0 L 179.0 491.0 L 179.0 488.0 L 186.0 482.0 L 189.0 484.0 L 188.0 481.0 L 192.0 482.0 L 193.0 480.0 Z M 74.0 453.0 L 91.0 481.0 L 106.0 496.0 L 124.0 508.0 L 131.0 508.0 L 141.0 504.0 L 142.0 495.0 L 144.0 512.0 L 145.0 499.0 L 143.0 495.0 L 129.0 494.0 L 116.0 488.0 L 103.0 477.0 L 107.0 476.0 L 103.0 475.0 L 102.0 477.0 L 100.0 474.0 L 102.0 473.0 L 99.0 474.0 L 99.0 471.0 L 96.0 473.0 L 97.0 470.0 L 93.0 471.0 L 92.0 468.0 L 91.0 470.0 L 85.0 462.0 L 87.0 464.0 L 83.0 466.0 Z M 157.0 437.0 L 155.0 435.0 L 156.0 439.0 L 154.0 442.0 L 151.0 435.0 L 151.0 449.0 L 142.0 462.0 L 131.0 467.0 L 118.0 469.0 L 118.0 471.0 L 121.0 472.0 L 121.0 469.0 L 126.0 470.0 L 127.0 468.0 L 139.0 468.0 L 141.0 464.0 L 152.0 458.0 L 151.0 456.0 L 155.0 452.0 Z M 164.0 420.0 L 169.0 451.0 L 171.0 451.0 L 171.0 455.0 L 178.0 459.0 L 177.0 451.0 L 173.0 451.0 L 173.0 443.0 L 171.0 444.0 L 173.0 436.0 Z M 215.0 367.0 L 195.0 369.0 L 197.0 368.0 L 195.0 369.0 L 198.0 388.0 L 205.0 402.0 Z M 180.0 330.0 L 180.0 336.0 L 186.0 337.0 L 188.0 343.0 L 194.0 348.0 L 195.0 359.0 L 196.0 352.0 L 201.0 352.0 L 201.0 350.0 L 209.0 347.0 L 218.0 347.0 Z M 112.0 265.0 L 114.0 266.0 L 113.0 268.0 L 111.0 267.0 L 112.0 280.0 L 110.0 284.0 L 112.0 281.0 L 112.0 288.0 L 114.0 288.0 L 112.0 295.0 L 115.0 294.0 L 114.0 298.0 L 119.0 313.0 L 117.0 315.0 L 120.0 315.0 L 121.0 319.0 L 119.0 322.0 L 122.0 321.0 L 120.0 325.0 L 123.0 325.0 L 121.0 328.0 L 124.0 327.0 L 122.0 331.0 L 125.0 331.0 L 124.0 333.0 L 127.0 337.0 L 125.0 339.0 L 128.0 339.0 L 127.0 341.0 L 130.0 345.0 L 128.0 347.0 L 131.0 347.0 L 134.0 354.0 L 132.0 356.0 L 135.0 356.0 L 141.0 370.0 L 140.0 372.0 L 142.0 372.0 L 141.0 374.0 L 143.0 374.0 L 150.0 385.0 L 149.0 387.0 L 152.0 388.0 L 151.0 390.0 L 154.0 391.0 L 153.0 393.0 L 180.0 421.0 L 184.0 436.0 L 193.0 423.0 L 179.0 409.0 L 178.0 404.0 L 175.0 402.0 L 176.0 400.0 L 173.0 398.0 L 173.0 392.0 L 171.0 392.0 L 169.0 363.0 L 171.0 364.0 L 170.0 357.0 L 172.0 357.0 L 170.0 352.0 L 173.0 352.0 L 171.0 350.0 L 173.0 348.0 L 170.0 345.0 L 168.0 347.0 L 167.0 344.0 L 164.0 344.0 L 165.0 341.0 L 157.0 337.0 L 150.0 328.0 L 146.0 329.0 L 154.0 338.0 L 154.0 342.0 L 157.0 342.0 L 163.0 348.0 L 163.0 351.0 L 169.0 353.0 L 168.0 358.0 L 166.0 358.0 L 167.0 360.0 L 165.0 360.0 L 166.0 362.0 L 164.0 362.0 L 165.0 365.0 L 163.0 365.0 L 162.0 381.0 L 160.0 381.0 L 160.0 378.0 L 158.0 383.0 L 145.0 362.0 L 146.0 359.0 L 144.0 359.0 L 145.0 356.0 L 142.0 353.0 L 143.0 349.0 L 141.0 349.0 L 142.0 342.0 L 141.0 344.0 L 139.0 341.0 L 139.0 322.0 L 137.0 319.0 L 139.0 308.0 L 138.0 311.0 L 138.0 306.0 L 135.0 305.0 L 138.0 304.0 L 140.0 298.0 L 142.0 300.0 L 140.0 296.0 L 143.0 297.0 L 141.0 295.0 L 143.0 294.0 L 142.0 291.0 L 145.0 292.0 L 144.0 287.0 L 146.0 287.0 L 147.0 280.0 L 150.0 278.0 L 142.0 285.0 L 142.0 288.0 L 140.0 286.0 L 139.0 291.0 L 137.0 290.0 L 137.0 296.0 L 134.0 295.0 L 135.0 299.0 L 132.0 299.0 L 134.0 301.0 L 132.0 302.0 L 133.0 305.0 L 130.0 304.0 L 132.0 307.0 L 129.0 307.0 L 131.0 311.0 L 128.0 310.0 L 129.0 313.0 L 126.0 316.0 L 123.0 313.0 L 122.0 301.0 L 120.0 301.0 L 121.0 289.0 L 121.0 293.0 L 118.0 294.0 L 119.0 280.0 L 121.0 285.0 L 119.0 275.0 L 122.0 277.0 L 120.0 271.0 L 123.0 273.0 L 121.0 269.0 L 124.0 270.0 L 126.0 266.0 L 123.0 269.0 L 122.0 267.0 L 116.0 274.0 L 115.0 265.0 Z M 69.0 104.0 L 66.0 106.0 L 70.0 106.0 L 72.0 108.0 L 69.0 108.0 L 73.0 113.0 L 75.0 112.0 L 75.0 115.0 L 80.0 117.0 L 79.0 121.0 L 82.0 121.0 L 79.0 126.0 L 81.0 126.0 L 80.0 129.0 L 77.0 130.0 L 76.0 136.0 L 71.0 141.0 L 78.0 146.0 L 77.0 149.0 L 82.0 141.0 L 81.0 139.0 L 83.0 139.0 L 82.0 137.0 L 84.0 137.0 L 85.0 133.0 L 87.0 134.0 L 86.0 130.0 L 88.0 127.0 L 85.0 127.0 L 87.0 124.0 L 84.0 124.0 L 85.0 122.0 L 81.0 118.0 L 80.0 113.0 L 75.0 109.0 L 76.0 107.0 L 73.0 108.0 Z M 144.0 100.0 L 135.0 99.0 L 135.0 102.0 L 129.0 100.0 L 128.0 103.0 L 114.0 104.0 L 114.0 107.0 L 112.0 105.0 L 113.0 107.0 L 107.0 110.0 L 105.0 115.0 L 103.0 113.0 L 104.0 117.0 L 102.0 117.0 L 102.0 122.0 L 100.0 122.0 L 101.0 126.0 L 99.0 125.0 L 100.0 130.0 L 98.0 129.0 L 99.0 134.0 L 96.0 133.0 L 97.0 138.0 L 98.0 136.0 L 99.0 138.0 L 99.0 131.0 L 102.0 131.0 L 100.0 129.0 L 103.0 128.0 L 102.0 122.0 L 105.0 123.0 L 103.0 121.0 L 105.0 120.0 L 104.0 118.0 L 108.0 117.0 L 114.0 109.0 L 119.0 108.0 L 119.0 106.0 L 122.0 108.0 L 122.0 106.0 L 140.0 102.0 L 133.0 110.0 L 131.0 119.0 L 133.0 123.0 L 133.0 112.0 L 141.0 101.0 Z M 292.0 91.0 L 290.0 93.0 L 292.0 93.0 L 291.0 97.0 L 294.0 97.0 L 296.0 105.0 L 294.0 109.0 L 297.0 109.0 L 295.0 113.0 L 298.0 113.0 L 296.0 118.0 L 299.0 117.0 L 297.0 123.0 L 300.0 122.0 L 299.0 128.0 L 303.0 136.0 L 306.0 137.0 L 304.0 139.0 L 307.0 142.0 L 307.0 147.0 L 313.0 160.0 L 312.0 163.0 L 314.0 163.0 L 316.0 175.0 L 319.0 178.0 L 319.0 185.0 L 322.0 188.0 L 322.0 196.0 L 325.0 199.0 L 325.0 209.0 L 320.0 212.0 L 326.0 211.0 L 331.0 243.0 L 333.0 244.0 L 332.0 250.0 L 334.0 250.0 L 333.0 258.0 L 335.0 256.0 L 336.0 313.0 L 334.0 313.0 L 334.0 306.0 L 332.0 340.0 L 325.0 365.0 L 323.0 361.0 L 325.0 366.0 L 324.0 369.0 L 322.0 368.0 L 324.0 376.0 L 322.0 376.0 L 322.0 385.0 L 319.0 384.0 L 321.0 389.0 L 319.0 389.0 L 319.0 394.0 L 317.0 392.0 L 319.0 395.0 L 317.0 397.0 L 318.0 400.0 L 316.0 400.0 L 314.0 410.0 L 311.0 410.0 L 313.0 413.0 L 311.0 413.0 L 311.0 417.0 L 309.0 415.0 L 311.0 418.0 L 309.0 418.0 L 308.0 425.0 L 305.0 424.0 L 307.0 426.0 L 304.0 429.0 L 305.0 431.0 L 303.0 431.0 L 302.0 435.0 L 300.0 434.0 L 302.0 436.0 L 299.0 438.0 L 300.0 440.0 L 298.0 440.0 L 296.0 446.0 L 294.0 444.0 L 296.0 446.0 L 293.0 448.0 L 293.0 451.0 L 290.0 450.0 L 292.0 453.0 L 287.0 456.0 L 285.0 461.0 L 283.0 459.0 L 282.0 465.0 L 277.0 468.0 L 275.0 473.0 L 262.0 481.0 L 264.0 483.0 L 258.0 484.0 L 259.0 486.0 L 254.0 487.0 L 254.0 490.0 L 251.0 489.0 L 251.0 492.0 L 248.0 491.0 L 247.0 495.0 L 245.0 494.0 L 241.0 498.0 L 239.0 496.0 L 239.0 499.0 L 237.0 497.0 L 238.0 500.0 L 235.0 498.0 L 237.0 500.0 L 235.0 501.0 L 233.0 499.0 L 234.0 502.0 L 231.0 500.0 L 231.0 503.0 L 226.0 502.0 L 228.0 504.0 L 225.0 504.0 L 225.0 506.0 L 221.0 504.0 L 222.0 507.0 L 218.0 505.0 L 219.0 508.0 L 215.0 506.0 L 217.0 508.0 L 212.0 512.0 L 214.0 513.0 L 207.0 517.0 L 219.0 519.0 L 216.0 517.0 L 221.0 516.0 L 224.0 518.0 L 223.0 515.0 L 228.0 517.0 L 227.0 514.0 L 231.0 515.0 L 229.0 514.0 L 233.0 514.0 L 233.0 512.0 L 237.0 514.0 L 237.0 511.0 L 244.0 511.0 L 251.0 504.0 L 256.0 504.0 L 257.0 500.0 L 262.0 500.0 L 256.0 511.0 L 246.0 519.0 L 243.0 519.0 L 241.0 523.0 L 238.0 522.0 L 238.0 525.0 L 236.0 523.0 L 236.0 526.0 L 232.0 525.0 L 232.0 528.0 L 230.0 526.0 L 231.0 528.0 L 225.0 529.0 L 225.0 531.0 L 221.0 529.0 L 222.0 532.0 L 214.0 531.0 L 208.0 526.0 L 212.0 530.0 L 207.0 533.0 L 208.0 537.0 L 204.0 540.0 L 201.0 538.0 L 205.0 536.0 L 200.0 537.0 L 199.0 535.0 L 206.0 546.0 L 217.0 549.0 L 216.0 546.0 L 224.0 547.0 L 239.0 544.0 L 265.0 535.0 L 289.0 520.0 L 291.0 521.0 L 295.0 515.0 L 297.0 516.0 L 312.0 497.0 L 316.0 496.0 L 315.0 494.0 L 331.0 471.0 L 342.0 446.0 L 349.0 419.0 L 349.0 408.0 L 351.0 407.0 L 351.0 394.0 L 353.0 391.0 L 352.0 381.0 L 354.0 381.0 L 353.0 357.0 L 355.0 342.0 L 348.0 244.0 L 346.0 244.0 L 347.0 240.0 L 345.0 240.0 L 344.0 236.0 L 345.0 231.0 L 342.0 231.0 L 343.0 228.0 L 340.0 223.0 L 342.0 219.0 L 339.0 220.0 L 341.0 215.0 L 337.0 213.0 L 339.0 208.0 L 336.0 210.0 L 338.0 205.0 L 335.0 205.0 L 337.0 202.0 L 334.0 202.0 L 335.0 196.0 L 331.0 192.0 L 320.0 157.0 L 321.0 154.0 L 319.0 154.0 L 320.0 151.0 L 317.0 149.0 L 317.0 143.0 L 315.0 143.0 L 308.0 126.0 L 309.0 123.0 L 307.0 123.0 L 308.0 121.0 L 306.0 121.0 L 303.0 115.0 L 304.0 112.0 L 300.0 110.0 L 302.0 108.0 L 300.0 108.0 Z M 289.0 474.0 L 291.0 476.0 L 291.0 488.0 L 289.0 488.0 L 290.0 491.0 L 288.0 497.0 L 286.0 497.0 L 287.0 499.0 L 285.0 499.0 L 286.0 501.0 L 283.0 502.0 L 282.0 507.0 L 267.0 522.0 L 266.0 520.0 L 263.0 523.0 L 262.0 519.0 L 267.0 515.0 L 267.0 511.0 L 271.0 508.0 L 274.0 499.0 L 285.0 482.0 L 283.0 481.0 L 286.0 480.0 L 284.0 478.0 L 287.0 478.0 L 285.0 476.0 Z M 321.0 410.0 L 323.0 412.0 L 324.0 427.0 L 321.0 449.0 L 319.0 449.0 L 320.0 453.0 L 318.0 453.0 L 317.0 462.0 L 312.0 472.0 L 309.0 473.0 L 310.0 475.0 L 299.0 483.0 L 296.0 479.0 L 300.0 473.0 L 301.0 465.0 L 303.0 465.0 L 301.0 462.0 L 304.0 462.0 L 302.0 460.0 L 304.0 459.0 L 303.0 456.0 L 305.0 456.0 L 305.0 451.0 L 308.0 451.0 L 307.0 445.0 L 310.0 445.0 L 308.0 441.0 L 310.0 441.0 L 311.0 432.0 L 314.0 432.0 L 312.0 429.0 L 315.0 429.0 L 313.0 425.0 L 316.0 425.0 L 316.0 415.0 L 319.0 416.0 L 317.0 412.0 Z M 346.0 325.0 L 350.0 351.0 L 349.0 362.0 L 350.0 357.0 L 352.0 360.0 L 349.0 398.0 L 345.0 412.0 L 343.0 412.0 L 344.0 414.0 L 340.0 418.0 L 341.0 420.0 L 338.0 421.0 L 335.0 427.0 L 329.0 429.0 L 325.0 426.0 L 326.0 423.0 L 328.0 425.0 L 326.0 417.0 L 329.0 411.0 L 330.0 413.0 L 330.0 398.0 L 333.0 398.0 L 331.0 393.0 L 334.0 393.0 L 332.0 389.0 L 333.0 387.0 L 335.0 388.0 L 333.0 382.0 L 336.0 383.0 L 334.0 377.0 L 337.0 378.0 L 335.0 374.0 L 338.0 373.0 L 339.0 356.0 L 341.0 356.0 L 340.0 351.0 L 342.0 350.0 L 342.0 334.0 L 344.0 336.0 L 343.0 329.0 Z M 341.0 229.0 L 345.0 247.0 L 347.0 247.0 L 347.0 259.0 L 349.0 260.0 L 349.0 285.0 L 346.0 284.0 L 346.0 273.0 L 344.0 275.0 L 345.0 266.0 L 344.0 269.0 L 343.0 249.0 L 343.0 252.0 L 341.0 252.0 Z M 157.0 41.0 L 154.0 42.0 L 152.0 51.0 L 149.0 50.0 L 151.0 52.0 L 147.0 56.0 L 148.0 58.0 L 145.0 57.0 L 147.0 60.0 L 144.0 59.0 L 146.0 61.0 L 143.0 61.0 L 145.0 63.0 L 142.0 69.0 L 139.0 69.0 L 141.0 72.0 L 138.0 71.0 L 139.0 76.0 L 137.0 79.0 L 135.0 78.0 L 135.0 84.0 L 132.0 86.0 L 134.0 89.0 L 127.0 92.0 L 129.0 94.0 L 138.0 92.0 L 142.0 94.0 L 140.0 87.0 L 142.0 87.0 L 141.0 83.0 L 143.0 84.0 L 142.0 80.0 L 144.0 80.0 L 143.0 77.0 L 145.0 77.0 L 144.0 74.0 L 146.0 74.0 L 145.0 71.0 L 147.0 71.0 L 146.0 69.0 Z" fill="#1a2b3f" fill-rule="evenodd"/>
<path d="M 188.0 827.0 L 172.0 836.0 L 156.0 837.0 L 157.0 841.0 L 153.0 838.0 L 170.0 850.0 L 176.0 851.0 L 180.0 849.0 L 184.0 842.0 L 183.0 834.0 Z M 108.0 798.0 L 114.0 814.0 L 111.0 813.0 L 116.0 819.0 L 116.0 823.0 L 119.0 824.0 L 118.0 826.0 L 121.0 827.0 L 122.0 833.0 L 126.0 836.0 L 126.0 840.0 L 121.0 841.0 L 126.0 847.0 L 128.0 846.0 L 138.0 852.0 L 151.0 856.0 L 135.0 849.0 L 140.0 848.0 L 140.0 844.0 L 148.0 848.0 L 139.0 843.0 L 135.0 837.0 L 133.0 838.0 L 124.0 829.0 L 125.0 827.0 L 117.0 819.0 Z M 89.0 759.0 L 90.0 778.0 L 91.0 770.0 L 92.0 776.0 L 100.0 776.0 L 101.0 774.0 L 103.0 780.0 L 103.0 775.0 L 94.0 770.0 L 96.0 769.0 L 103.0 773.0 L 104.0 768.0 L 102.0 765.0 L 100.0 766.0 L 100.0 764.0 L 98.0 765.0 L 98.0 763.0 L 96.0 764.0 Z M 233.0 752.0 L 229.0 750.0 L 226.0 752.0 L 225.0 750.0 L 228.0 748.0 L 210.0 752.0 L 211.0 759.0 L 212.0 752.0 L 218.0 752.0 L 217.0 755.0 L 220.0 752.0 Z M 211.0 748.0 L 188.0 748.0 L 198.0 747.0 L 200.0 744.0 L 208.0 744.0 L 203.0 744.0 L 202.0 740.0 L 199.0 741.0 L 199.0 739.0 L 195.0 742.0 L 192.0 741.0 L 200.0 733.0 L 192.0 741.0 L 190.0 740.0 L 188.0 744.0 L 175.0 750.0 Z M 75.0 693.0 L 76.0 700.0 L 74.0 702.0 L 76.0 702.0 L 77.0 712.0 L 80.0 713.0 L 83.0 720.0 L 108.0 734.0 L 108.0 736.0 L 114.0 737.0 L 116.0 735.0 L 112.0 731.0 L 110.0 732.0 L 107.0 727.0 L 104.0 727.0 L 91.0 714.0 L 83.0 702.0 L 92.0 718.0 L 100.0 724.0 L 100.0 728.0 L 98.0 729.0 L 83.0 717.0 Z M 267.0 661.0 L 253.0 660.0 L 257.0 661.0 L 251.0 662.0 L 269.0 665.0 L 275.0 670.0 L 276.0 675.0 L 278.0 675.0 L 277.0 677.0 L 279.0 677.0 L 278.0 680.0 L 280.0 680.0 L 279.0 689.0 L 279.0 684.0 L 281.0 684.0 L 280.0 695.0 L 278.0 694.0 L 279.0 698.0 L 277.0 698.0 L 278.0 700.0 L 276.0 700.0 L 277.0 702.0 L 275.0 702.0 L 274.0 706.0 L 267.0 712.0 L 264.0 712.0 L 264.0 714.0 L 258.0 714.0 L 254.0 722.0 L 244.0 731.0 L 249.0 735.0 L 244.0 737.0 L 259.0 728.0 L 261.0 729.0 L 271.0 719.0 L 270.0 717.0 L 274.0 715.0 L 273.0 713.0 L 276.0 712.0 L 276.0 708.0 L 280.0 705.0 L 285.0 687.0 L 284.0 681.0 L 278.0 669.0 Z M 69.0 648.0 L 68.0 674.0 L 73.0 698.0 L 71.0 673.0 L 73.0 675.0 L 73.0 666.0 L 76.0 684.0 L 74.0 652.0 L 76.0 652.0 L 76.0 655.0 L 76.0 650.0 Z M 290.0 645.0 L 283.0 649.0 L 286.0 664.0 L 285.0 673.0 L 287.0 673.0 L 286.0 684.0 L 287.0 677.0 L 289.0 677.0 L 288.0 672.0 L 290.0 672.0 L 289.0 666.0 L 291.0 666.0 L 290.0 657.0 L 292.0 650.0 Z M 209.0 624.0 L 204.0 625.0 L 203.0 629.0 L 200.0 626.0 L 195.0 632.0 L 203.0 630.0 Z M 249.0 615.0 L 244.0 619.0 L 243.0 617.0 L 229.0 616.0 L 226.0 618.0 L 226.0 621.0 L 224.0 619.0 L 221.0 626.0 L 236.0 625.0 L 234.0 624.0 L 245.0 620.0 Z M 179.0 604.0 L 173.0 612.0 L 172.0 609.0 L 172.0 617.0 L 176.0 613.0 L 174.0 611.0 L 179.0 607.0 L 177.0 606.0 Z M 157.0 589.0 L 156.0 593.0 L 152.0 593.0 L 153.0 596.0 L 147.0 594.0 L 145.0 595.0 L 150.0 595.0 L 148.0 598.0 L 143.0 598.0 L 154.0 600.0 L 149.0 603.0 L 155.0 601.0 Z M 193.0 586.0 L 192.0 607.0 L 189.0 609.0 L 191.0 613.0 L 189.0 613.0 L 190.0 615.0 L 188.0 615.0 L 187.0 620.0 L 193.0 610.0 L 192.0 607.0 L 194.0 607.0 Z M 274.0 576.0 L 244.0 587.0 L 244.0 590.0 L 251.0 598.0 L 251.0 604.0 L 253.0 604.0 L 252.0 618.0 L 256.0 617.0 L 253.0 618.0 L 251.0 616.0 L 253.0 611.0 L 259.0 606.0 L 268.0 585.0 L 272.0 584.0 Z M 197.0 538.0 L 196.0 541.0 L 200.0 541.0 L 203.0 548.0 L 210.0 547.0 L 206.0 547.0 Z M 282.0 531.0 L 285.0 547.0 L 288.0 547.0 L 287.0 534.0 L 286.0 538.0 Z M 55.0 527.0 L 54.0 532.0 L 52.0 528.0 L 54.0 532.0 L 53.0 560.0 L 58.0 586.0 L 65.0 600.0 L 76.0 607.0 L 75.0 603.0 L 73.0 603.0 L 72.0 591.0 L 70.0 591.0 L 71.0 585.0 L 69.0 586.0 L 70.0 574.0 L 69.0 576.0 L 67.0 559.0 L 59.0 543.0 Z M 57.0 489.0 L 64.0 504.0 L 63.0 506.0 L 68.0 510.0 L 67.0 512.0 L 79.0 524.0 L 85.0 527.0 L 82.0 524.0 L 82.0 517.0 L 67.0 503.0 L 68.0 501.0 L 70.0 503.0 L 64.0 499.0 L 65.0 497.0 Z M 194.0 482.0 L 195.0 484.0 L 191.0 489.0 L 189.0 498.0 L 189.0 512.0 L 193.0 524.0 L 199.0 533.0 L 198.0 535.0 L 203.0 536.0 L 202.0 538.0 L 204.0 539.0 L 207.0 537.0 L 207.0 532.0 L 213.0 531.0 L 207.0 525.0 L 205.0 526.0 L 201.0 520.0 L 203.0 518.0 L 221.0 517.0 L 206.0 517.0 L 213.0 513.0 L 211.0 512.0 L 214.0 508.0 L 227.0 504.0 L 208.0 510.0 L 195.0 511.0 L 192.0 507.0 L 192.0 499.0 L 197.0 483.0 Z M 129.0 479.0 L 136.0 481.0 L 149.0 492.0 L 148.0 494.0 L 154.0 504.0 L 156.0 522.0 L 155.0 506.0 L 157.0 504.0 L 153.0 490.0 L 145.0 483.0 Z M 175.0 458.0 L 180.0 463.0 L 188.0 466.0 L 177.0 457.0 L 178.0 460.0 Z M 139.0 411.0 L 136.0 411.0 L 128.0 418.0 L 122.0 427.0 L 120.0 436.0 L 120.0 419.0 L 118.0 450.0 L 115.0 456.0 L 119.0 468.0 L 133.0 465.0 L 127.0 464.0 L 148.0 451.0 L 150.0 447.0 L 149.0 428.0 L 145.0 421.0 L 146.0 419.0 L 143.0 418.0 L 144.0 416.0 Z M 237.0 341.0 L 232.0 373.0 L 222.0 410.0 L 226.0 401.0 L 225.0 397.0 L 227.0 398.0 L 232.0 383.0 Z M 149.0 279.0 L 139.0 304.0 L 136.0 305.0 L 139.0 306.0 L 140.0 334.0 L 140.0 325.0 L 143.0 324.0 L 161.0 340.0 L 149.0 328.0 L 150.0 326.0 L 145.0 323.0 L 138.0 310.0 L 141.0 296.0 Z M 314.0 205.0 L 313.0 215.0 L 310.0 219.0 L 312.0 235.0 L 315.0 233.0 L 321.0 239.0 L 326.0 249.0 L 327.0 258.0 L 325.0 265.0 L 318.0 269.0 L 317.0 265.0 L 315.0 266.0 L 312.0 263.0 L 314.0 260.0 L 311.0 261.0 L 309.0 254.0 L 311.0 252.0 L 309.0 257.0 L 312.0 262.0 L 311.0 277.0 L 313.0 278.0 L 306.0 280.0 L 312.0 280.0 L 313.0 278.0 L 322.0 292.0 L 321.0 295.0 L 324.0 297.0 L 327.0 319.0 L 325.0 364.0 L 333.0 327.0 L 334.0 272.0 L 333.0 277.0 L 333.0 259.0 L 331.0 257.0 L 332.0 251.0 L 325.0 211.0 L 322.0 213.0 L 316.0 212.0 L 315.0 208.0 L 313.0 209.0 Z M 80.0 126.0 L 58.0 169.0 L 47.0 199.0 L 44.0 215.0 L 41.0 215.0 L 42.0 224.0 L 39.0 223.0 L 41.0 228.0 L 38.0 234.0 L 38.0 245.0 L 36.0 245.0 L 35.0 265.0 L 33.0 267.0 L 34.0 276.0 L 32.0 277.0 L 33.0 290.0 L 31.0 294.0 L 31.0 331.0 L 35.0 370.0 L 45.0 412.0 L 63.0 454.0 L 64.0 469.0 L 68.0 464.0 L 71.0 464.0 L 75.0 469.0 L 74.0 471.0 L 78.0 472.0 L 77.0 475.0 L 82.0 477.0 L 80.0 479.0 L 85.0 482.0 L 85.0 485.0 L 95.0 495.0 L 100.0 496.0 L 102.0 501.0 L 115.0 507.0 L 124.0 516.0 L 126.0 515.0 L 126.0 517.0 L 134.0 519.0 L 139.0 525.0 L 140.0 522.0 L 144.0 521.0 L 145.0 515.0 L 134.0 514.0 L 114.0 503.0 L 99.0 492.0 L 80.0 469.0 L 78.0 461.0 L 83.0 465.0 L 86.0 464.0 L 86.0 466.0 L 113.0 482.0 L 112.0 477.0 L 104.0 477.0 L 103.0 474.0 L 107.0 475.0 L 96.0 472.0 L 91.0 466.0 L 89.0 467.0 L 81.0 458.0 L 82.0 456.0 L 79.0 455.0 L 79.0 451.0 L 76.0 450.0 L 75.0 444.0 L 73.0 444.0 L 74.0 442.0 L 72.0 442.0 L 72.0 438.0 L 70.0 438.0 L 71.0 436.0 L 67.0 432.0 L 68.0 429.0 L 64.0 425.0 L 64.0 419.0 L 62.0 419.0 L 57.0 407.0 L 59.0 404.0 L 57.0 405.0 L 58.0 401.0 L 55.0 401.0 L 57.0 397.0 L 55.0 398.0 L 54.0 396.0 L 56.0 393.0 L 53.0 394.0 L 55.0 389.0 L 53.0 389.0 L 54.0 385.0 L 52.0 385.0 L 53.0 380.0 L 50.0 380.0 L 52.0 375.0 L 49.0 376.0 L 51.0 370.0 L 48.0 371.0 L 50.0 363.0 L 47.0 365.0 L 49.0 356.0 L 46.0 357.0 L 47.0 346.0 L 47.0 350.0 L 45.0 350.0 L 47.0 336.0 L 45.0 340.0 L 40.0 312.0 L 40.0 300.0 L 42.0 299.0 L 40.0 297.0 L 41.0 289.0 L 39.0 288.0 L 40.0 259.0 L 44.0 250.0 L 43.0 244.0 L 47.0 237.0 L 46.0 231.0 L 48.0 224.0 L 50.0 224.0 L 49.0 220.0 L 52.0 218.0 L 51.0 215.0 L 54.0 213.0 L 53.0 211.0 L 56.0 206.0 L 56.0 214.0 L 57.0 212.0 L 56.0 204.0 L 59.0 204.0 L 57.0 201.0 L 61.0 197.0 L 59.0 193.0 L 62.0 194.0 L 63.0 184.0 L 65.0 184.0 L 64.0 181.0 L 66.0 181.0 L 65.0 178.0 L 67.0 178.0 L 66.0 175.0 L 68.0 170.0 L 70.0 170.0 L 69.0 167.0 L 71.0 162.0 L 73.0 162.0 L 72.0 159.0 L 78.0 145.0 L 71.0 142.0 L 79.0 128.0 L 81.0 128.0 Z M 74.0 457.0 L 77.0 456.0 L 77.0 459.0 L 80.0 461.0 L 77.0 462.0 Z M 43.0 110.0 L 51.0 120.0 L 54.0 112.0 L 53.0 114.0 Z M 56.0 101.0 L 74.0 108.0 L 68.0 104.0 Z M 145.0 100.0 L 141.0 104.0 L 136.0 103.0 L 122.0 107.0 L 123.0 110.0 L 113.0 143.0 L 107.0 190.0 L 107.0 247.0 L 111.0 280.0 L 110.0 267.0 L 113.0 267.0 L 111.0 265.0 L 116.0 265.0 L 116.0 273.0 L 121.0 268.0 L 121.0 273.0 L 128.0 260.0 L 127.0 258.0 L 131.0 256.0 L 130.0 250.0 L 126.0 248.0 L 127.0 246.0 L 123.0 243.0 L 121.0 245.0 L 117.0 243.0 L 120.0 231.0 L 124.0 227.0 L 123.0 224.0 L 126.0 223.0 L 127.0 217.0 L 131.0 214.0 L 132.0 209.0 L 134.0 209.0 L 137.0 199.0 L 130.0 187.0 L 135.0 197.0 L 134.0 199.0 L 131.0 195.0 L 130.0 199.0 L 122.0 205.0 L 115.0 199.0 L 117.0 186.0 L 122.0 182.0 L 129.0 185.0 L 125.0 179.0 L 126.0 184.0 L 122.0 180.0 L 124.0 174.0 L 122.0 174.0 L 121.0 170.0 L 122.0 160.0 L 126.0 156.0 L 127.0 151.0 L 141.0 136.0 L 141.0 133.0 L 130.0 119.0 L 131.0 113.0 L 138.0 103.0 L 143.0 104.0 Z M 146.0 75.0 L 144.0 88.0 L 142.0 88.0 L 143.0 94.0 L 145.0 93.0 L 145.0 83.0 L 147.0 84.0 L 146.0 79.0 L 148.0 79.0 Z M 86.0 65.0 L 80.0 79.0 L 69.0 90.0 L 58.0 92.0 L 70.0 90.0 L 77.0 86.0 L 84.0 75.0 Z M 40.0 58.0 L 28.0 71.0 L 28.0 84.0 L 28.0 79.0 L 31.0 77.0 Z M 98.0 52.0 L 97.0 57.0 L 104.0 84.0 L 109.0 86.0 L 110.0 89.0 L 124.0 91.0 L 118.0 89.0 L 118.0 82.0 L 134.0 56.0 L 114.0 76.0 L 113.0 84.0 L 115.0 83.0 L 117.0 86.0 L 115.0 88.0 L 108.0 83.0 L 102.0 73.0 L 97.0 57.0 Z M 100.0 33.0 L 102.0 38.0 L 109.0 44.0 L 114.0 41.0 Z" fill="#3c536a" fill-rule="evenodd"/>
<path d="M 247.0 835.0 L 229.0 850.0 L 227.0 849.0 L 227.0 851.0 L 220.0 855.0 L 217.0 854.0 L 217.0 856.0 L 203.0 861.0 L 189.0 863.0 L 195.0 865.0 L 195.0 872.0 L 192.0 873.0 L 208.0 872.0 L 208.0 870.0 L 220.0 868.0 L 220.0 866.0 L 230.0 861.0 L 232.0 862.0 L 239.0 855.0 L 235.0 856.0 L 239.0 848.0 L 238.0 844.0 Z M 254.0 786.0 L 244.0 790.0 L 235.0 805.0 L 236.0 807.0 L 234.0 807.0 L 235.0 809.0 L 233.0 809.0 L 234.0 811.0 L 232.0 811.0 L 232.0 815.0 L 227.0 820.0 L 227.0 824.0 L 241.0 818.0 L 252.0 808.0 L 257.0 796.0 L 257.0 789.0 Z M 267.0 766.0 L 265.0 764.0 L 255.0 769.0 L 255.0 772.0 L 253.0 770.0 L 252.0 773.0 L 250.0 771.0 L 251.0 774.0 L 247.0 772.0 L 248.0 775.0 L 244.0 773.0 L 245.0 776.0 L 241.0 774.0 L 241.0 776.0 L 229.0 777.0 L 229.0 779.0 L 224.0 778.0 L 224.0 780.0 L 202.0 783.0 L 202.0 786.0 L 213.0 787.0 L 214.0 785.0 L 219.0 786.0 L 242.0 781.0 L 260.0 774.0 L 260.0 771.0 L 262.0 773.0 L 262.0 770.0 L 264.0 772.0 L 267.0 770.0 Z M 252.0 775.0 L 250.0 778.0 L 243.0 778.0 L 250.0 774.0 Z M 246.0 742.0 L 244.0 743.0 L 243.0 741.0 L 237.0 745.0 L 210.0 751.0 L 220.0 751.0 L 220.0 749.0 L 229.0 747.0 L 226.0 751.0 L 229.0 749.0 L 234.0 752.0 L 220.0 753.0 L 219.0 755.0 L 218.0 753.0 L 212.0 753.0 L 212.0 760.0 L 215.0 762.0 L 214.0 758.0 L 225.0 760.0 L 222.0 758.0 L 226.0 757.0 L 228.0 759.0 L 228.0 756.0 L 232.0 758.0 L 244.0 752.0 Z M 230.0 730.0 L 219.0 730.0 L 205.0 740.0 L 210.0 741.0 L 210.0 739.0 L 221.0 738.0 L 221.0 736.0 L 223.0 737.0 L 223.0 735.0 L 228.0 734.0 Z M 268.0 682.0 L 266.0 681.0 L 266.0 686.0 L 262.0 689.0 L 264.0 694.0 L 261.0 697.0 L 254.0 695.0 L 258.0 692.0 L 261.0 693.0 L 260.0 691.0 L 253.0 693.0 L 246.0 688.0 L 244.0 683.0 L 244.0 691.0 L 246.0 691.0 L 246.0 695.0 L 249.0 698.0 L 259.0 697.0 L 259.0 701.0 L 254.0 700.0 L 261.0 702.0 L 268.0 692.0 Z M 213.0 671.0 L 208.0 671.0 L 214.0 673.0 L 212.0 696.0 L 208.0 694.0 L 209.0 689.0 L 208.0 691.0 L 206.0 688.0 L 196.0 693.0 L 193.0 692.0 L 186.0 697.0 L 184.0 694.0 L 180.0 704.0 L 169.0 716.0 L 153.0 725.0 L 139.0 728.0 L 153.0 749.0 L 177.0 750.0 L 175.0 749.0 L 179.0 747.0 L 178.0 745.0 L 186.0 743.0 L 202.0 727.0 L 201.0 725.0 L 204.0 724.0 L 203.0 722.0 L 209.0 711.0 L 213.0 696.0 Z M 279.0 643.0 L 268.0 648.0 L 260.0 646.0 L 272.0 641.0 L 250.0 649.0 L 227.0 653.0 L 227.0 656.0 L 229.0 656.0 L 228.0 661.0 Z M 248.0 653.0 L 249.0 649.0 L 260.0 649.0 L 257.0 652.0 Z M 188.0 637.0 L 239.0 632.0 L 239.0 630.0 L 271.0 622.0 L 271.0 619.0 L 273.0 621.0 L 279.0 615.0 L 281.0 616.0 L 281.0 611.0 L 285.0 615.0 L 289.0 610.0 L 286.0 612.0 L 284.0 610.0 L 286.0 606.0 L 283.0 608.0 L 283.0 613.0 L 280.0 608.0 L 275.0 613.0 L 273.0 612.0 L 273.0 614.0 L 271.0 613.0 L 267.0 617.0 L 260.0 618.0 L 260.0 620.0 L 257.0 619.0 L 257.0 621.0 L 254.0 620.0 L 254.0 622.0 L 251.0 621.0 L 251.0 623.0 L 248.0 622.0 L 245.0 625.0 L 241.0 624.0 L 241.0 626.0 L 237.0 625.0 L 237.0 627.0 L 233.0 626.0 L 233.0 628.0 L 229.0 627.0 L 229.0 629.0 L 223.0 628.0 L 224.0 630.0 L 217.0 628.0 L 215.0 631.0 L 215.0 628.0 L 212.0 630.0 L 211.0 626.0 L 220.0 611.0 L 223.0 598.0 L 211.0 607.0 L 210.0 603.0 L 202.0 624.0 L 199.0 624.0 L 193.0 634.0 Z M 210.0 624.0 L 201.0 632.0 L 196.0 630.0 L 198.0 628.0 L 202.0 629.0 L 204.0 624.0 Z M 137.0 590.0 L 136.0 595.0 L 138.0 595.0 L 138.0 599.0 L 141.0 599.0 L 142.0 602.0 L 147.0 601.0 L 148.0 603.0 L 154.0 599.0 L 150.0 601.0 L 143.0 599.0 L 143.0 597.0 L 147.0 598.0 L 147.0 596.0 Z M 158.0 588.0 L 158.0 598.0 L 150.0 606.0 L 158.0 604.0 L 162.0 593.0 L 158.0 592.0 Z M 242.0 586.0 L 230.0 591.0 L 223.0 590.0 L 226.0 592.0 L 227.0 600.0 L 229.0 600.0 L 228.0 607.0 L 228.0 603.0 L 230.0 603.0 L 226.0 620.0 L 229.0 615.0 L 243.0 616.0 L 244.0 618.0 L 250.0 612.0 L 250.0 601.0 Z M 180.0 588.0 L 178.0 587.0 L 180.0 588.0 L 176.0 590.0 L 175.0 586.0 L 174.0 600.0 L 172.0 600.0 L 170.0 608.0 L 161.0 617.0 L 156.0 619.0 L 158.0 620.0 L 155.0 626.0 L 140.0 627.0 L 160.0 625.0 L 166.0 620.0 L 168.0 621.0 L 170.0 617.0 L 172.0 618.0 L 171.0 613.0 L 174.0 610.0 L 175.0 612.0 L 175.0 606.0 L 180.0 600.0 Z M 316.0 549.0 L 310.0 552.0 L 309.0 555.0 L 311.0 555.0 L 310.0 563.0 L 311.0 561.0 L 312.0 567.0 L 317.0 559.0 Z M 253.0 564.0 L 250.0 547.0 L 249.0 551.0 L 226.0 554.0 L 232.0 556.0 L 242.0 567.0 Z M 188.0 537.0 L 195.0 547.0 L 202.0 548.0 L 200.0 542.0 L 195.0 541.0 L 196.0 538.0 Z M 280.0 532.0 L 275.0 532.0 L 274.0 535.0 L 263.0 540.0 L 270.0 556.0 L 277.0 552.0 L 279.0 553.0 L 281.0 550.0 Z M 82.0 518.0 L 83.0 524.0 L 90.0 532.0 L 92.0 531.0 L 92.0 533.0 L 102.0 536.0 L 102.0 538.0 L 111.0 539.0 L 111.0 541.0 L 116.0 540.0 L 115.0 542.0 L 126.0 542.0 L 126.0 544.0 L 131.0 543.0 L 132.0 545.0 L 147.0 545.0 L 166.0 550.0 L 170.0 553.0 L 158.0 547.0 L 165.0 545.0 L 167.0 546.0 L 124.0 540.0 L 121.0 537.0 L 118.0 538.0 L 116.0 535.0 L 109.0 534.0 L 109.0 532.0 L 107.0 533.0 L 107.0 531.0 L 105.0 532.0 L 105.0 530.0 L 103.0 531.0 L 103.0 529.0 L 101.0 530.0 L 101.0 528.0 L 99.0 529.0 L 99.0 527.0 L 97.0 528.0 L 90.0 521.0 L 88.0 522.0 L 87.0 519.0 Z M 311.0 507.0 L 297.0 519.0 L 294.0 519.0 L 287.0 527.0 L 290.0 528.0 L 293.0 541.0 L 297.0 540.0 L 311.0 524.0 Z M 51.0 503.0 L 56.0 516.0 L 53.0 537.0 L 55.0 526.0 L 68.0 562.0 L 70.0 543.0 L 72.0 544.0 L 72.0 535.0 L 75.0 534.0 L 64.0 524.0 Z M 287.0 483.0 L 264.0 521.0 L 282.0 503.0 L 281.0 501.0 L 285.0 498.0 L 285.0 493.0 L 287.0 493.0 Z M 106.0 478.0 L 122.0 489.0 L 140.0 492.0 L 141.0 490.0 L 143.0 492.0 L 131.0 482.0 L 112.0 478.0 L 114.0 479.0 L 112.0 482.0 Z M 314.0 458.0 L 309.0 465.0 L 306.0 464.0 L 299.0 477.0 L 301.0 480.0 L 301.0 478.0 L 308.0 474.0 L 307.0 472.0 Z M 148.0 450.0 L 128.0 464.0 L 131.0 465.0 L 140.0 461.0 L 140.0 458.0 L 142.0 456.0 L 143.0 458.0 Z M 358.0 429.0 L 353.0 433.0 L 351.0 431.0 L 348.0 432.0 L 349.0 437.0 L 346.0 440.0 L 345.0 450.0 L 342.0 452.0 L 343.0 455.0 L 339.0 459.0 L 338.0 465.0 L 336.0 465.0 L 335.0 473.0 L 339.0 481.0 L 351.0 454.0 Z M 178.0 426.0 L 176.0 426.0 L 177.0 435.0 L 174.0 437.0 L 176.0 451.0 L 177.0 444.0 L 179.0 444.0 L 178.0 441.0 L 181.0 438.0 L 181.0 431.0 Z M 140.0 384.0 L 150.0 400.0 L 145.0 401.0 L 141.0 393.0 L 146.0 405.0 L 145.0 407.0 L 148.0 410.0 L 147.0 412.0 L 149.0 412.0 L 151.0 420.0 L 154.0 421.0 L 156.0 405.0 Z M 120.0 376.0 L 123.0 383.0 L 120.0 435.0 L 121.0 427.0 L 127.0 418.0 L 136.0 410.0 L 140.0 413.0 L 132.0 402.0 L 132.0 398.0 L 129.0 397.0 L 129.0 393.0 L 127.0 393.0 L 128.0 391.0 L 126.0 391.0 Z M 173.0 367.0 L 172.0 384.0 L 173.0 382.0 L 179.0 405.0 L 182.0 405.0 L 182.0 409.0 L 196.0 422.0 L 196.0 416.0 L 192.0 414.0 L 191.0 410.0 L 188.0 410.0 L 187.0 404.0 L 184.0 404.0 L 186.0 402.0 L 184.0 402.0 L 183.0 396.0 L 180.0 393.0 L 181.0 389.0 L 178.0 386.0 L 177.0 368.0 L 176.0 371.0 Z M 149.0 361.0 L 157.0 378.0 L 161.0 363.0 L 160.0 367.0 L 156.0 369.0 Z M 216.0 351.0 L 208.0 350.0 L 208.0 352.0 L 197.0 356.0 L 197.0 366.0 L 216.0 363.0 Z M 134.0 255.0 L 139.0 265.0 L 143.0 268.0 L 145.0 277.0 L 152.0 274.0 L 153.0 271.0 L 146.0 266.0 L 145.0 268.0 Z M 57.0 204.0 L 55.0 213.0 L 52.0 215.0 L 53.0 218.0 L 50.0 220.0 L 47.0 231.0 L 48.0 237.0 L 44.0 244.0 L 45.0 250.0 L 41.0 259.0 L 40.0 288.0 L 42.0 289.0 L 41.0 297.0 L 43.0 299.0 L 41.0 300.0 L 41.0 312.0 L 45.0 339.0 L 45.0 274.0 L 50.0 234.0 Z M 124.0 178.0 L 125.0 182.0 L 117.0 188.0 L 116.0 199.0 L 122.0 204.0 L 129.0 199.0 L 131.0 194.0 L 134.0 198.0 L 125.0 184.0 L 127.0 181.0 Z M 145.0 137.0 L 144.0 139.0 L 143.0 136.0 L 141.0 137.0 L 142.0 139.0 L 135.0 143.0 L 130.0 150.0 L 131.0 152.0 L 128.0 153.0 L 128.0 157.0 Z M 300.0 131.0 L 295.0 133.0 L 294.0 136.0 L 288.0 135.0 L 288.0 133.0 L 284.0 137.0 L 286.0 137.0 L 285.0 140.0 L 288.0 142.0 L 292.0 155.0 L 291.0 173.0 L 289.0 173.0 L 292.0 176.0 L 288.0 177.0 L 288.0 179.0 L 281.0 178.0 L 283.0 182.0 L 282.0 185.0 L 284.0 185.0 L 283.0 187.0 L 285.0 187.0 L 284.0 189.0 L 288.0 193.0 L 290.0 205.0 L 289.0 210.0 L 287.0 210.0 L 288.0 213.0 L 286.0 213.0 L 287.0 215.0 L 280.0 222.0 L 275.0 222.0 L 274.0 224.0 L 276.0 232.0 L 278.0 232.0 L 280.0 237.0 L 279.0 241.0 L 281.0 241.0 L 280.0 256.0 L 269.0 269.0 L 261.0 273.0 L 265.0 276.0 L 264.0 278.0 L 266.0 278.0 L 265.0 280.0 L 267.0 280.0 L 266.0 282.0 L 268.0 282.0 L 268.0 287.0 L 271.0 290.0 L 271.0 305.0 L 268.0 307.0 L 269.0 309.0 L 267.0 309.0 L 266.0 314.0 L 265.0 312.0 L 265.0 316.0 L 262.0 315.0 L 261.0 307.0 L 248.0 313.0 L 248.0 321.0 L 250.0 321.0 L 249.0 331.0 L 251.0 330.0 L 250.0 339.0 L 252.0 338.0 L 252.0 360.0 L 250.0 367.0 L 253.0 364.0 L 251.0 362.0 L 257.0 358.0 L 255.0 357.0 L 256.0 355.0 L 259.0 355.0 L 258.0 352.0 L 261.0 352.0 L 261.0 347.0 L 264.0 347.0 L 265.0 345.0 L 263.0 344.0 L 267.0 336.0 L 271.0 334.0 L 272.0 327.0 L 275.0 325.0 L 278.0 313.0 L 280.0 313.0 L 279.0 310.0 L 281.0 310.0 L 280.0 307.0 L 283.0 304.0 L 284.0 295.0 L 286.0 295.0 L 285.0 291.0 L 287.0 284.0 L 289.0 284.0 L 288.0 279.0 L 296.0 241.0 L 298.0 202.0 L 301.0 202.0 L 304.0 208.0 L 309.0 238.0 L 304.0 284.0 L 307.0 281.0 L 305.0 281.0 L 306.0 279.0 L 313.0 279.0 L 310.0 277.0 L 310.0 268.0 L 313.0 263.0 L 315.0 265.0 L 309.0 253.0 L 308.0 239.0 L 313.0 233.0 L 315.0 234.0 L 311.0 231.0 L 309.0 224.0 L 313.0 206.0 L 316.0 211.0 L 302.0 165.0 L 303.0 162.0 L 301.0 162.0 L 302.0 159.0 L 300.0 159.0 L 300.0 154.0 L 298.0 154.0 L 297.0 147.0 L 295.0 147.0 L 294.0 141.0 L 291.0 138.0 L 299.0 134.0 Z M 309.0 253.0 L 311.0 262.0 L 308.0 257.0 Z M 303.0 170.0 L 307.0 179.0 L 306.0 184.0 L 302.0 181.0 Z M 35.0 99.0 L 35.0 102.0 L 42.0 109.0 L 49.0 110.0 L 54.0 114.0 L 51.0 122.0 L 59.0 106.0 Z M 94.0 33.0 L 100.0 56.0 L 114.0 40.0 L 109.0 45.0 L 101.0 38.0 L 99.0 33.0 Z M 90.0 31.0 L 69.0 32.0 L 68.0 35.0 L 60.0 38.0 L 41.0 57.0 L 32.0 77.0 L 29.0 79.0 L 28.0 95.0 L 53.0 92.0 L 53.0 90.0 L 60.0 88.0 L 70.0 79.0 L 75.0 68.0 L 84.0 59.0 L 83.0 57.0 L 86.0 54.0 L 87.0 56.0 L 86.0 51.0 L 88.0 51.0 Z M 165.0 30.0 L 152.0 58.0 L 147.0 74.0 L 148.0 77.0 L 158.0 44.0 Z" fill="#6d8293" fill-rule="evenodd"/>
<path d="M 169.0 864.0 L 178.0 864.0 L 181.0 871.0 L 179.0 874.0 L 195.0 875.0 L 191.0 873.0 L 194.0 872.0 L 193.0 864.0 Z M 103.0 808.0 L 108.0 826.0 L 121.0 837.0 L 121.0 832.0 L 118.0 831.0 Z M 118.0 812.0 L 131.0 830.0 L 130.0 832.0 L 128.0 830.0 L 131.0 833.0 L 132.0 831.0 L 145.0 844.0 L 164.0 849.0 L 165.0 847.0 L 162.0 847.0 L 160.0 844.0 L 158.0 845.0 L 153.0 839.0 L 153.0 841.0 L 149.0 839.0 L 149.0 835.0 L 166.0 835.0 L 164.0 834.0 L 176.0 832.0 L 176.0 830.0 L 178.0 831.0 L 178.0 829.0 L 180.0 830.0 L 180.0 828.0 L 186.0 826.0 L 193.0 819.0 L 193.0 815.0 L 197.0 813.0 L 195.0 811.0 L 199.0 808.0 L 197.0 805.0 L 200.0 805.0 L 200.0 791.0 L 172.0 790.0 L 188.0 792.0 L 183.0 793.0 L 186.0 794.0 L 176.0 801.0 L 165.0 822.0 L 163.0 821.0 L 165.0 818.0 L 165.0 807.0 L 161.0 798.0 L 165.0 807.0 L 164.0 819.0 L 159.0 825.0 L 148.0 827.0 L 142.0 826.0 L 129.0 813.0 L 125.0 803.0 L 127.0 786.0 L 125.0 804.0 L 129.0 814.0 L 137.0 823.0 L 140.0 833.0 L 139.0 837.0 L 126.0 825.0 Z M 105.0 768.0 L 107.0 777.0 L 106.0 775.0 L 108.0 774.0 L 111.0 776.0 L 109.0 777.0 L 112.0 776.0 L 112.0 778.0 L 115.0 777.0 L 115.0 779.0 L 121.0 780.0 L 119.0 779.0 L 122.0 775.0 Z M 276.0 758.0 L 270.0 763.0 L 270.0 783.0 L 263.0 810.0 L 257.0 822.0 L 254.0 823.0 L 255.0 825.0 L 252.0 826.0 L 253.0 828.0 L 249.0 830.0 L 248.0 835.0 L 243.0 841.0 L 242.0 839.0 L 238.0 843.0 L 240.0 848.0 L 236.0 856.0 L 239.0 856.0 L 243.0 851.0 L 247.0 851.0 L 253.0 845.0 L 261.0 830.0 L 264.0 829.0 L 263.0 826.0 L 266.0 825.0 L 265.0 822.0 L 270.0 811.0 L 275.0 789.0 Z M 210.0 762.0 L 208.0 760.0 L 208.0 753.0 L 178.0 754.0 L 189.0 754.0 L 188.0 760.0 L 191.0 762.0 L 188.0 763.0 Z M 267.0 726.0 L 261.0 732.0 L 259.0 731.0 L 257.0 735.0 L 255.0 734.0 L 254.0 737.0 L 252.0 736.0 L 247.0 741.0 L 245.0 740.0 L 244.0 742.0 L 247.0 742.0 L 245.0 752.0 L 249.0 752.0 L 249.0 750.0 L 263.0 742.0 L 259.0 743.0 L 259.0 734.0 Z M 140.0 667.0 L 169.0 667.0 L 171.0 669.0 L 166.0 674.0 L 168.0 681.0 L 166.0 685.0 L 167.0 691.0 L 165.0 692.0 L 167.0 693.0 L 165.0 695.0 L 165.0 704.0 L 167.0 705.0 L 164.0 716.0 L 168.0 713.0 L 169.0 715.0 L 176.0 708.0 L 175.0 706.0 L 179.0 704.0 L 184.0 693.0 L 186.0 696.0 L 193.0 691.0 L 196.0 692.0 L 206.0 687.0 L 207.0 691.0 L 210.0 689.0 L 209.0 694.0 L 212.0 695.0 L 213.0 673.0 L 207.0 671.0 L 214.0 671.0 L 212.0 669.0 L 199.0 671.0 L 171.0 667.0 Z M 225.0 660.0 L 225.0 654.0 L 210.0 656.0 L 220.0 657.0 L 219.0 661.0 L 215.0 661.0 Z M 78.0 651.0 L 79.0 675.0 L 86.0 698.0 L 85.0 701.0 L 88.0 702.0 L 90.0 709.0 L 110.0 729.0 L 113.0 729.0 L 105.0 722.0 L 104.0 711.0 L 110.0 719.0 L 120.0 725.0 L 106.0 714.0 L 103.0 704.0 L 102.0 709.0 L 100.0 700.0 L 93.0 693.0 L 82.0 688.0 L 79.0 675.0 L 79.0 661.0 L 84.0 653.0 Z M 300.0 627.0 L 292.0 632.0 L 290.0 631.0 L 290.0 633.0 L 288.0 632.0 L 288.0 635.0 L 286.0 633.0 L 286.0 636.0 L 284.0 634.0 L 284.0 637.0 L 282.0 635.0 L 283.0 637.0 L 280.0 639.0 L 278.0 638.0 L 277.0 640.0 L 275.0 638.0 L 276.0 640.0 L 271.0 641.0 L 271.0 643.0 L 269.0 642.0 L 269.0 644.0 L 265.0 642.0 L 266.0 645.0 L 262.0 643.0 L 264.0 645.0 L 261.0 646.0 L 259.0 644.0 L 261.0 646.0 L 259.0 649.0 L 249.0 650.0 L 251.0 651.0 L 249.0 653.0 L 253.0 655.0 L 252.0 652.0 L 256.0 654.0 L 254.0 652.0 L 257.0 651.0 L 259.0 653.0 L 257.0 651.0 L 261.0 646.0 L 267.0 646.0 L 270.0 649.0 L 269.0 646.0 L 272.0 647.0 L 273.0 645.0 L 275.0 647.0 L 274.0 644.0 L 277.0 645.0 L 277.0 643.0 L 279.0 644.0 L 292.0 637.0 L 295.0 642.0 L 292.0 676.0 L 295.0 662.0 L 300.0 665.0 L 299.0 680.0 L 302.0 657.0 Z M 221.0 617.0 L 218.0 616.0 L 219.0 618.0 L 213.0 624.0 L 212.0 629.0 L 216.0 628.0 L 214.0 631.0 L 216.0 625.0 L 223.0 620.0 Z M 132.0 595.0 L 139.0 605.0 L 151.0 608.0 L 149.0 606.0 L 153.0 604.0 L 143.0 605.0 L 137.0 598.0 L 135.0 600.0 Z M 224.0 593.0 L 223.0 596.0 L 222.0 592.0 L 211.0 594.0 L 211.0 606.0 L 219.0 599.0 L 221.0 600.0 Z M 153.0 575.0 L 159.0 582.0 L 159.0 592.0 L 164.0 593.0 L 162.0 592.0 L 162.0 585.0 L 159.0 579.0 Z M 317.0 560.0 L 312.0 568.0 L 310.0 559.0 L 311.0 576.0 L 308.0 578.0 L 309.0 581.0 L 304.0 586.0 L 305.0 588.0 L 300.0 595.0 L 293.0 601.0 L 290.0 601.0 L 289.0 604.0 L 286.0 604.0 L 286.0 607.0 L 281.0 608.0 L 284.0 607.0 L 286.0 613.0 L 288.0 613.0 L 287.0 610.0 L 295.0 608.0 L 310.0 591.0 Z M 146.0 558.0 L 148.0 561.0 L 145.0 562.0 L 154.0 563.0 L 156.0 566.0 L 162.0 567.0 L 173.0 578.0 L 172.0 580.0 L 174.0 581.0 L 172.0 583.0 L 175.0 583.0 L 173.0 587.0 L 175.0 585.0 L 176.0 589.0 L 180.0 587.0 L 177.0 572.0 L 175.0 572.0 L 175.0 568.0 L 170.0 563.0 L 165.0 562.0 L 165.0 560.0 L 163.0 561.0 L 163.0 559.0 Z M 73.0 550.0 L 72.0 588.0 L 74.0 589.0 L 73.0 592.0 L 78.0 608.0 L 99.0 620.0 L 110.0 620.0 L 107.0 618.0 L 109.0 616.0 L 116.0 622.0 L 106.0 622.0 L 134.0 627.0 L 156.0 624.0 L 157.0 620.0 L 155.0 619.0 L 148.0 621.0 L 135.0 618.0 L 139.0 619.0 L 140.0 623.0 L 137.0 626.0 L 128.0 625.0 L 129.0 623.0 L 124.0 622.0 L 110.0 608.0 L 102.0 590.0 L 108.0 609.0 L 106.0 610.0 L 96.0 604.0 L 87.0 592.0 L 88.0 584.0 L 86.0 587.0 L 83.0 585.0 L 73.0 562.0 Z M 77.0 599.0 L 82.0 607.0 L 81.0 609.0 L 77.0 606.0 Z M 250.0 545.0 L 225.0 551.0 L 204.0 552.0 L 211.0 559.0 L 212.0 566.0 L 215.0 568.0 L 215.0 574.0 L 227.0 571.0 L 227.0 569.0 L 222.0 569.0 L 220.0 565.0 L 222.0 554.0 L 227.0 555.0 L 225.0 554.0 L 249.0 550.0 Z M 156.0 546.0 L 174.0 553.0 L 185.0 564.0 L 184.0 566.0 L 188.0 569.0 L 189.0 575.0 L 192.0 572.0 L 190.0 572.0 L 185.0 562.0 L 186.0 560.0 L 177.0 553.0 L 177.0 550.0 L 171.0 549.0 L 171.0 546.0 L 169.0 548.0 L 169.0 545.0 L 167.0 547.0 L 166.0 545.0 Z M 66.0 471.0 L 66.0 476.0 L 70.0 477.0 L 69.0 480.0 L 74.0 483.0 L 73.0 485.0 L 90.0 502.0 L 93.0 502.0 L 95.0 506.0 L 97.0 505.0 L 105.0 513.0 L 107.0 512.0 L 122.0 519.0 L 124.0 522.0 L 127.0 521.0 L 130.0 524.0 L 133.0 521.0 L 136.0 524.0 L 133.0 521.0 L 127.0 520.0 L 127.0 518.0 L 125.0 519.0 L 125.0 517.0 L 123.0 518.0 L 123.0 516.0 L 105.0 506.0 L 104.0 503.0 L 101.0 503.0 L 98.0 498.0 L 96.0 499.0 L 82.0 485.0 L 82.0 482.0 L 78.0 480.0 L 75.0 473.0 L 69.0 468.0 Z M 294.0 440.0 L 279.0 452.0 L 280.0 454.0 L 275.0 457.0 L 277.0 458.0 L 265.0 468.0 L 266.0 470.0 L 261.0 475.0 L 259.0 474.0 L 253.0 482.0 L 238.0 491.0 L 236.0 495.0 L 235.0 493.0 L 221.0 501.0 L 198.0 506.0 L 198.0 491.0 L 196.0 507.0 L 211.0 505.0 L 229.0 498.0 L 232.0 499.0 L 232.0 497.0 L 240.0 495.0 L 241.0 492.0 L 247.0 491.0 L 254.0 484.0 L 256.0 485.0 L 257.0 482.0 L 260.0 482.0 L 263.0 477.0 L 267.0 476.0 L 276.0 467.0 L 275.0 465.0 L 285.0 456.0 Z M 69.0 425.0 L 75.0 440.0 L 85.0 456.0 L 84.0 458.0 L 93.0 467.0 L 95.0 466.0 L 98.0 470.0 L 108.0 470.0 L 115.0 467.0 L 114.0 464.0 L 109.0 464.0 L 104.0 459.0 L 106.0 458.0 L 100.0 460.0 L 102.0 458.0 L 95.0 456.0 L 91.0 460.0 L 88.0 459.0 L 80.0 449.0 Z M 319.0 423.0 L 308.0 459.0 L 306.0 458.0 L 308.0 461.0 L 305.0 461.0 L 305.0 465.0 L 306.0 463.0 L 309.0 464.0 L 311.0 460.0 L 313.0 462.0 L 313.0 458.0 L 315.0 460.0 L 313.0 458.0 L 315.0 457.0 L 318.0 445.0 Z M 162.0 408.0 L 161.0 413.0 L 165.0 415.0 L 164.0 417.0 L 166.0 417.0 L 171.0 430.0 L 173.0 430.0 L 172.0 432.0 L 174.0 432.0 L 177.0 421.0 Z M 245.0 404.0 L 228.0 425.0 L 226.0 431.0 L 223.0 432.0 L 224.0 434.0 L 212.0 446.0 L 213.0 448.0 L 200.0 467.0 L 208.0 463.0 L 209.0 458.0 L 214.0 455.0 L 212.0 454.0 L 221.0 446.0 L 221.0 443.0 L 223.0 443.0 L 237.0 422.0 L 234.0 418.0 Z M 119.0 387.0 L 107.0 418.0 L 104.0 421.0 L 108.0 436.0 L 110.0 437.0 L 109.0 440.0 L 110.0 438.0 L 115.0 449.0 L 114.0 454.0 L 113.0 452.0 L 114.0 456.0 L 120.0 414.0 L 120.0 397.0 L 121.0 403.0 Z M 139.0 381.0 L 137.0 383.0 L 139.0 390.0 L 141.0 390.0 L 140.0 392.0 L 145.0 400.0 L 149.0 400.0 Z M 345.0 343.0 L 330.0 427.0 L 340.0 417.0 L 345.0 397.0 L 347.0 378.0 Z M 144.0 332.0 L 144.0 351.0 L 146.0 351.0 L 147.0 360.0 L 151.0 362.0 L 150.0 365.0 L 154.0 372.0 L 150.0 364.0 L 158.0 368.0 L 160.0 364.0 L 162.0 366.0 L 160.0 363.0 L 163.0 363.0 L 163.0 359.0 L 166.0 357.0 L 165.0 353.0 L 162.0 353.0 L 152.0 343.0 L 151.0 339.0 L 147.0 337.0 L 146.0 332.0 Z M 311.0 280.0 L 311.0 282.0 L 304.0 285.0 L 304.0 291.0 L 301.0 291.0 L 302.0 296.0 L 300.0 296.0 L 302.0 300.0 L 299.0 300.0 L 301.0 304.0 L 298.0 304.0 L 299.0 308.0 L 296.0 311.0 L 298.0 314.0 L 295.0 314.0 L 297.0 317.0 L 294.0 318.0 L 296.0 321.0 L 293.0 321.0 L 295.0 325.0 L 293.0 328.0 L 291.0 326.0 L 290.0 329.0 L 292.0 327.0 L 294.0 331.0 L 289.0 337.0 L 289.0 331.0 L 286.0 338.0 L 288.0 340.0 L 285.0 345.0 L 292.0 333.0 L 300.0 327.0 L 304.0 331.0 L 305.0 336.0 L 308.0 337.0 L 306.0 340.0 L 308.0 360.0 L 305.0 383.0 L 300.0 401.0 L 292.0 417.0 L 282.0 428.0 L 293.0 419.0 L 293.0 423.0 L 286.0 436.0 L 303.0 405.0 L 317.0 372.0 L 318.0 379.0 L 323.0 337.0 L 321.0 296.0 L 319.0 296.0 L 319.0 291.0 L 317.0 291.0 L 317.0 287.0 L 314.0 286.0 Z M 133.0 258.0 L 130.0 264.0 L 128.0 264.0 L 127.0 269.0 L 125.0 269.0 L 124.0 280.0 L 122.0 280.0 L 123.0 303.0 L 128.0 308.0 L 128.0 300.0 L 131.0 300.0 L 131.0 294.0 L 135.0 292.0 L 134.0 289.0 L 139.0 285.0 L 140.0 281.0 L 148.0 276.0 L 145.0 276.0 L 142.0 268.0 Z M 348.0 195.0 L 350.0 205.0 L 348.0 205.0 L 346.0 210.0 L 347.0 213.0 L 343.0 214.0 L 343.0 212.0 L 351.0 249.0 L 351.0 239.0 L 356.0 248.0 L 361.0 251.0 L 362.0 260.0 L 357.0 228.0 Z M 303.0 171.0 L 303.0 181.0 L 306.0 183.0 Z M 143.0 142.0 L 128.0 158.0 L 129.0 152.0 L 125.0 164.0 L 128.0 182.0 L 133.0 187.0 L 132.0 189.0 L 135.0 190.0 L 134.0 192.0 L 136.0 192.0 L 135.0 194.0 L 137.0 194.0 L 140.0 203.0 L 134.0 214.0 L 131.0 215.0 L 130.0 220.0 L 128.0 220.0 L 129.0 222.0 L 125.0 226.0 L 126.0 229.0 L 122.0 234.0 L 122.0 238.0 L 126.0 241.0 L 129.0 248.0 L 132.0 248.0 L 132.0 252.0 L 140.0 262.0 L 151.0 272.0 L 152.0 270.0 L 154.0 271.0 L 154.0 278.0 L 152.0 278.0 L 152.0 283.0 L 148.0 291.0 L 146.0 291.0 L 146.0 296.0 L 144.0 296.0 L 144.0 304.0 L 146.0 300.0 L 148.0 309.0 L 156.0 317.0 L 154.0 325.0 L 149.0 321.0 L 153.0 326.0 L 152.0 328.0 L 170.0 342.0 L 171.0 345.0 L 174.0 344.0 L 176.0 346.0 L 175.0 355.0 L 173.0 355.0 L 174.0 360.0 L 172.0 361.0 L 176.0 370.0 L 178.0 368.0 L 178.0 379.0 L 180.0 347.0 L 163.0 331.0 L 166.0 328.0 L 152.0 313.0 L 152.0 309.0 L 148.0 305.0 L 148.0 298.0 L 158.0 274.0 L 157.0 269.0 L 141.0 256.0 L 140.0 251.0 L 133.0 246.0 L 130.0 237.0 L 128.0 237.0 L 129.0 227.0 L 132.0 221.0 L 134.0 221.0 L 136.0 213.0 L 142.0 207.0 L 143.0 196.0 L 141.0 196.0 L 142.0 194.0 L 140.0 194.0 L 131.0 177.0 L 128.0 165.0 Z M 87.0 141.0 L 84.0 141.0 L 79.0 149.0 L 78.0 156.0 L 76.0 156.0 L 77.0 159.0 L 74.0 161.0 L 73.0 169.0 L 71.0 169.0 L 72.0 172.0 L 69.0 174.0 L 70.0 177.0 L 68.0 177.0 L 69.0 180.0 L 67.0 186.0 L 65.0 186.0 L 66.0 190.0 L 64.0 196.0 L 62.0 196.0 L 63.0 200.0 L 59.0 216.0 L 62.0 211.0 L 61.0 209.0 L 66.0 206.0 L 70.0 194.0 L 73.0 192.0 L 76.0 197.0 L 74.0 194.0 L 75.0 186.0 L 79.0 182.0 L 84.0 185.0 L 80.0 182.0 L 75.0 183.0 L 79.0 173.0 L 84.0 167.0 L 90.0 165.0 L 92.0 170.0 L 88.0 145.0 L 85.0 145.0 Z M 292.0 137.0 L 297.0 142.0 L 299.0 150.0 L 301.0 150.0 L 300.0 153.0 L 302.0 153.0 L 303.0 161.0 L 306.0 163.0 L 305.0 166.0 L 307.0 166.0 L 311.0 178.0 L 310.0 170.0 L 314.0 178.0 L 303.0 144.0 L 304.0 141.0 L 302.0 141.0 L 303.0 138.0 L 301.0 138.0 L 300.0 134.0 L 294.0 139.0 Z M 142.0 104.0 L 134.0 113.0 L 134.0 122.0 L 143.0 134.0 L 140.0 141.0 L 143.0 135.0 L 144.0 138.0 L 148.0 136.0 L 148.0 132.0 L 146.0 134.0 L 146.0 127.0 L 143.0 127.0 L 143.0 117.0 L 140.0 118.0 Z M 87.0 51.0 L 85.0 59.0 L 76.0 68.0 L 71.0 79.0 L 60.0 89.0 L 53.0 91.0 L 65.0 88.0 L 76.0 80.0 L 83.0 67.0 Z" fill="#a2b4c1" fill-rule="evenodd"/>
<path d="M 187.0 792.0 L 155.0 790.0 L 158.0 791.0 L 157.0 793.0 L 163.0 799.0 L 164.0 808.0 L 166.0 807.0 L 166.0 818.0 L 164.0 821.0 L 175.0 801.0 L 185.0 794.0 L 183.0 792.0 Z M 108.0 777.0 L 106.0 780.0 L 109.0 779.0 L 107.0 785.0 L 110.0 783.0 L 108.0 790.0 L 110.0 788.0 L 112.0 793.0 L 110.0 797.0 L 113.0 796.0 L 111.0 800.0 L 114.0 799.0 L 113.0 802.0 L 116.0 804.0 L 116.0 809.0 L 118.0 809.0 L 117.0 811.0 L 123.0 819.0 L 121.0 821.0 L 123.0 819.0 L 127.0 827.0 L 136.0 836.0 L 138.0 835.0 L 141.0 840.0 L 137.0 831.0 L 137.0 826.0 L 141.0 826.0 L 130.0 817.0 L 126.0 810.0 L 127.0 806.0 L 126.0 808.0 L 124.0 804.0 L 124.0 791.0 L 126.0 787.0 L 127.0 789.0 L 126.0 786.0 L 130.0 785.0 L 120.0 783.0 Z M 120.0 779.0 L 132.0 783.0 L 136.0 782.0 L 136.0 784.0 L 147.0 781.0 L 148.0 783.0 L 154.0 782.0 L 154.0 784.0 L 176.0 784.0 L 179.0 786.0 L 175.0 787.0 L 201.0 788.0 L 199.0 786.0 L 200.0 783.0 L 199.0 785.0 L 198.0 783.0 L 172.0 784.0 L 135.0 779.0 L 132.0 776.0 L 129.0 778.0 L 128.0 775.0 L 126.0 777.0 L 123.0 775.0 Z M 82.0 756.0 L 82.0 782.0 L 86.0 805.0 L 91.0 820.0 L 101.0 837.0 L 100.0 839.0 L 105.0 842.0 L 104.0 844.0 L 123.0 858.0 L 124.0 861.0 L 126.0 860.0 L 142.0 868.0 L 165.0 874.0 L 193.0 875.0 L 179.0 875.0 L 178.0 865.0 L 161.0 864.0 L 145.0 859.0 L 145.0 857.0 L 139.0 857.0 L 123.0 848.0 L 120.0 843.0 L 118.0 844.0 L 101.0 825.0 L 102.0 823.0 L 97.0 819.0 L 90.0 802.0 L 85.0 767.0 L 85.0 774.0 L 83.0 774.0 Z M 164.0 753.0 L 171.0 762.0 L 168.0 763.0 L 183.0 764.0 L 186.0 762.0 L 188.0 764.0 L 190.0 762.0 L 187.0 760.0 L 189.0 755.0 L 171.0 753.0 L 176.0 752.0 Z M 106.0 739.0 L 109.0 751.0 L 114.0 751.0 L 114.0 742.0 L 116.0 742.0 L 114.0 739.0 Z M 70.0 714.0 L 82.0 732.0 L 93.0 740.0 L 94.0 743.0 L 96.0 742.0 L 105.0 747.0 L 103.0 745.0 L 104.0 741.0 L 102.0 742.0 L 105.0 735.0 L 103.0 737.0 L 102.0 735.0 L 100.0 736.0 L 97.0 731.0 L 95.0 732.0 L 91.0 727.0 L 89.0 728.0 L 87.0 724.0 L 84.0 724.0 L 79.0 719.0 L 80.0 717.0 L 75.0 715.0 L 81.0 727.0 L 79.0 728.0 Z M 83.0 728.0 L 87.0 728.0 L 92.0 734.0 L 91.0 739.0 L 81.0 730.0 Z M 103.0 710.0 L 107.0 725.0 L 111.0 726.0 L 113.0 731.0 L 126.0 739.0 L 122.0 740.0 L 134.0 743.0 L 133.0 745.0 L 140.0 744.0 L 150.0 747.0 L 138.0 729.0 L 117.0 725.0 L 116.0 722.0 L 114.0 723.0 L 112.0 719.0 L 110.0 720.0 L 107.0 717.0 L 109.0 716.0 Z M 253.0 672.0 L 263.0 679.0 L 262.0 673.0 Z M 80.0 661.0 L 80.0 675.0 L 78.0 678.0 L 80.0 675.0 L 81.0 682.0 L 79.0 684.0 L 81.0 682.0 L 83.0 688.0 L 93.0 692.0 L 101.0 700.0 L 102.0 708.0 L 102.0 704.0 L 104.0 704.0 L 104.0 707.0 L 107.0 702.0 L 115.0 703.0 L 130.0 717.0 L 132.0 725.0 L 143.0 727.0 L 141.0 726.0 L 155.0 723.0 L 171.0 713.0 L 178.0 704.0 L 169.0 714.0 L 164.0 715.0 L 166.0 713.0 L 164.0 711.0 L 166.0 705.0 L 164.0 704.0 L 164.0 695.0 L 166.0 693.0 L 164.0 692.0 L 166.0 691.0 L 165.0 685.0 L 167.0 681.0 L 165.0 674.0 L 169.0 668.0 L 140.0 668.0 L 140.0 666.0 L 143.0 666.0 L 133.0 667.0 L 132.0 665.0 L 124.0 664.0 L 136.0 677.0 L 136.0 690.0 L 131.0 698.0 L 118.0 702.0 L 108.0 698.0 L 102.0 688.0 L 100.0 688.0 L 101.0 685.0 L 99.0 685.0 L 98.0 677.0 L 103.0 665.0 L 95.0 672.0 L 88.0 672.0 L 84.0 669.0 L 82.0 661.0 Z M 148.0 679.0 L 152.0 683.0 L 151.0 690.0 L 146.0 695.0 L 141.0 696.0 L 138.0 693.0 L 138.0 683.0 L 143.0 679.0 Z M 300.0 657.0 L 299.0 665.0 L 295.0 663.0 L 297.0 661.0 L 294.0 666.0 L 292.0 662.0 L 294.0 671.0 L 291.0 670.0 L 293.0 676.0 L 290.0 676.0 L 292.0 679.0 L 290.0 681.0 L 291.0 684.0 L 288.0 684.0 L 289.0 688.0 L 282.0 706.0 L 280.0 706.0 L 281.0 708.0 L 277.0 715.0 L 261.0 731.0 L 260.0 743.0 L 265.0 743.0 L 266.0 739.0 L 269.0 740.0 L 270.0 736.0 L 278.0 728.0 L 281.0 728.0 L 280.0 726.0 L 286.0 721.0 L 286.0 717.0 L 289.0 716.0 L 288.0 714.0 L 292.0 710.0 L 291.0 707.0 L 296.0 692.0 L 298.0 692.0 L 296.0 688.0 L 298.0 687.0 L 297.0 682.0 L 299.0 682.0 Z M 219.0 657.0 L 207.0 656.0 L 205.0 658.0 L 172.0 659.0 L 179.0 660.0 L 177.0 664.0 L 172.0 664.0 L 209.0 664.0 L 209.0 661.0 L 217.0 663.0 L 214.0 661.0 L 219.0 660.0 Z M 62.0 630.0 L 60.0 671.0 L 61.0 679.0 L 61.0 659.0 L 65.0 681.0 L 63.0 665.0 L 65.0 642.0 L 67.0 641.0 L 70.0 645.0 L 72.0 644.0 L 75.0 648.0 L 80.0 649.0 L 85.0 644.0 L 88.0 645.0 Z M 186.0 605.0 L 186.0 611.0 L 167.0 630.0 L 183.0 619.0 L 182.0 617.0 L 185.0 616.0 L 184.0 614.0 L 188.0 610.0 Z M 224.0 598.0 L 225.0 604.0 L 223.0 604.0 L 224.0 607.0 L 217.0 619.0 L 219.0 616.0 L 224.0 618.0 L 224.0 614.0 L 226.0 614.0 L 226.0 599.0 Z M 134.0 580.0 L 131.0 582.0 L 132.0 593.0 L 130.0 595.0 L 133.0 595.0 L 133.0 599.0 L 136.0 598.0 L 135.0 594.0 L 133.0 594.0 Z M 144.0 574.0 L 152.0 576.0 L 154.0 580.0 L 152.0 578.0 L 154.0 577.0 L 158.0 584.0 L 155.0 577.0 L 157.0 575.0 L 155.0 577.0 L 152.0 574.0 Z M 222.0 555.0 L 222.0 568.0 L 227.0 568.0 L 230.0 571.0 L 228.0 570.0 L 232.0 568.0 L 237.0 569.0 L 240.0 566.0 L 230.0 557.0 L 227.0 559.0 L 225.0 557.0 L 227.0 556.0 Z M 259.0 541.0 L 251.0 544.0 L 254.0 549.0 L 256.0 562.0 L 263.0 559.0 L 266.0 560.0 L 269.0 556.0 L 263.0 543.0 Z M 76.0 534.0 L 73.0 541.0 L 75.0 547.0 L 72.0 546.0 L 74.0 550.0 L 74.0 562.0 L 83.0 584.0 L 86.0 586.0 L 93.0 583.0 L 102.0 589.0 L 111.0 608.0 L 124.0 621.0 L 130.0 623.0 L 128.0 624.0 L 137.0 625.0 L 140.0 618.0 L 137.0 620.0 L 137.0 618.0 L 135.0 619.0 L 135.0 617.0 L 130.0 616.0 L 125.0 611.0 L 123.0 605.0 L 121.0 605.0 L 122.0 603.0 L 120.0 602.0 L 122.0 600.0 L 119.0 600.0 L 121.0 596.0 L 118.0 596.0 L 119.0 584.0 L 124.0 574.0 L 131.0 567.0 L 143.0 563.0 L 147.0 559.0 L 123.0 557.0 L 122.0 555.0 L 98.0 550.0 L 86.0 544.0 L 83.0 540.0 L 81.0 541.0 Z M 91.0 557.0 L 103.0 557.0 L 112.0 564.0 L 115.0 576.0 L 111.0 583.0 L 102.0 586.0 L 86.0 575.0 L 86.0 564.0 Z M 249.0 512.0 L 243.0 512.0 L 244.0 514.0 L 241.0 516.0 L 236.0 515.0 L 236.0 518.0 L 233.0 516.0 L 233.0 518.0 L 230.0 517.0 L 227.0 521.0 L 219.0 521.0 L 221.0 522.0 L 211.0 526.0 L 219.0 526.0 L 229.0 522.0 L 233.0 524.0 L 232.0 521.0 L 235.0 523.0 L 235.0 520.0 L 238.0 520.0 L 240.0 517.0 L 242.0 519.0 Z M 332.0 473.0 L 334.0 475.0 L 332.0 478.0 L 329.0 478.0 L 330.0 480.0 L 327.0 481.0 L 328.0 483.0 L 323.0 487.0 L 322.0 492.0 L 313.0 500.0 L 312.0 514.0 L 315.0 520.0 L 326.0 503.0 L 329.0 503.0 L 328.0 501.0 L 333.0 493.0 L 335.0 493.0 L 333.0 491.0 L 337.0 483.0 L 339.0 483.0 Z M 55.0 447.0 L 56.0 452.0 L 54.0 454.0 L 52.0 452.0 L 56.0 458.0 L 55.0 460.0 L 58.0 461.0 L 57.0 463.0 L 60.0 462.0 L 61.0 457.0 L 59.0 457.0 Z M 129.0 365.0 L 132.0 370.0 L 126.0 383.0 L 134.0 397.0 L 133.0 399.0 L 136.0 400.0 L 148.0 418.0 L 144.0 411.0 L 144.0 406.0 L 142.0 406.0 L 143.0 403.0 L 141.0 403.0 L 140.0 393.0 L 138.0 393.0 L 138.0 388.0 L 136.0 388.0 L 138.0 383.0 L 136.0 375.0 Z M 162.0 323.0 L 167.0 328.0 L 164.0 331.0 L 176.0 341.0 L 177.0 345.0 L 180.0 345.0 L 178.0 349.0 L 180.0 346.0 L 182.0 348.0 L 179.0 336.0 L 175.0 336.0 L 174.0 332.0 L 170.0 331.0 Z M 295.0 320.0 L 290.0 333.0 L 288.0 333.0 L 288.0 338.0 L 285.0 340.0 L 284.0 345.0 L 282.0 345.0 L 283.0 347.0 L 281.0 347.0 L 281.0 350.0 L 261.0 378.0 L 251.0 397.0 L 243.0 405.0 L 243.0 408.0 L 240.0 409.0 L 241.0 411.0 L 237.0 413.0 L 238.0 415.0 L 233.0 421.0 L 235.0 422.0 L 236.0 420.0 L 238.0 424.0 L 227.0 438.0 L 227.0 441.0 L 224.0 442.0 L 225.0 444.0 L 222.0 445.0 L 221.0 449.0 L 218.0 450.0 L 218.0 453.0 L 215.0 454.0 L 215.0 457.0 L 211.0 459.0 L 206.0 467.0 L 230.0 471.0 L 233.0 475.0 L 221.0 478.0 L 215.0 477.0 L 215.0 479.0 L 209.0 478.0 L 209.0 481.0 L 203.0 480.0 L 204.0 483.0 L 198.0 489.0 L 199.0 494.0 L 196.0 492.0 L 199.0 501.0 L 198.0 505.0 L 210.0 503.0 L 217.0 499.0 L 219.0 500.0 L 219.0 498.0 L 222.0 499.0 L 222.0 497.0 L 224.0 498.0 L 224.0 496.0 L 226.0 497.0 L 226.0 495.0 L 228.0 496.0 L 234.0 493.0 L 234.0 491.0 L 236.0 492.0 L 237.0 489.0 L 239.0 490.0 L 240.0 487.0 L 245.0 486.0 L 256.0 474.0 L 260.0 473.0 L 283.0 445.0 L 285.0 446.0 L 288.0 442.0 L 296.0 440.0 L 294.0 438.0 L 299.0 432.0 L 308.0 411.0 L 301.0 425.0 L 294.0 424.0 L 295.0 426.0 L 291.0 429.0 L 290.0 434.0 L 287.0 432.0 L 293.0 418.0 L 288.0 421.0 L 289.0 423.0 L 284.0 428.0 L 271.0 431.0 L 265.0 426.0 L 261.0 416.0 L 262.0 399.0 L 274.0 367.0 L 281.0 355.0 L 280.0 353.0 L 287.0 339.0 L 289.0 339.0 L 290.0 333.0 L 293.0 333.0 L 298.0 326.0 L 304.0 329.0 L 298.0 326.0 L 293.0 331.0 L 292.0 328.0 Z M 259.0 424.0 L 262.0 427.0 L 263.0 434.0 L 257.0 449.0 L 246.0 461.0 L 242.0 463.0 L 234.0 462.0 L 229.0 456.0 L 229.0 447.0 L 232.0 441.0 L 246.0 426.0 L 252.0 423.0 Z M 259.0 396.0 L 259.0 402.0 L 255.0 411.0 L 241.0 421.0 L 243.0 412.0 Z M 267.0 301.0 L 263.0 302.0 L 262.0 305.0 L 264.0 312.0 L 267.0 308.0 Z M 146.0 301.0 L 144.0 305.0 L 142.0 303.0 L 144.0 306.0 L 143.0 311.0 L 152.0 326.0 L 155.0 322.0 L 154.0 312.0 L 152.0 314.0 L 147.0 309.0 Z M 275.0 257.0 L 266.0 257.0 L 262.0 267.0 L 269.0 266.0 Z M 321.0 247.0 L 318.0 256.0 L 320.0 257.0 L 316.0 263.0 L 322.0 265.0 Z M 351.0 240.0 L 357.0 301.0 L 357.0 291.0 L 361.0 290.0 L 364.0 293.0 L 362.0 291.0 L 365.0 289.0 L 369.0 340.0 L 367.0 342.0 L 369.0 345.0 L 368.0 365.0 L 365.0 370.0 L 362.0 369.0 L 363.0 372.0 L 360.0 373.0 L 359.0 381.0 L 358.0 370.0 L 356.0 401.0 L 352.0 428.0 L 350.0 430.0 L 355.0 430.0 L 356.0 427.0 L 357.0 429.0 L 359.0 428.0 L 359.0 419.0 L 362.0 420.0 L 360.0 415.0 L 362.0 414.0 L 361.0 411.0 L 365.0 397.0 L 368.0 371.0 L 369.0 322.0 L 366.0 281.0 L 363.0 271.0 L 364.0 265.0 L 362.0 263.0 L 363.0 259.0 L 361.0 260.0 L 362.0 252.0 L 361.0 255.0 Z M 285.0 208.0 L 278.0 205.0 L 280.0 213.0 L 269.0 222.0 L 272.0 223.0 L 272.0 221.0 L 274.0 222.0 L 274.0 220.0 L 276.0 221.0 L 276.0 219.0 L 281.0 217.0 Z M 310.0 171.0 L 312.0 175.0 L 310.0 181.0 L 313.0 180.0 L 311.0 185.0 L 314.0 185.0 L 312.0 189.0 L 314.0 190.0 L 313.0 194.0 L 315.0 194.0 L 314.0 198.0 L 316.0 198.0 L 316.0 206.0 L 321.0 209.0 L 323.0 208.0 L 323.0 203.0 L 322.0 205.0 L 320.0 203.0 L 322.0 198.0 L 319.0 199.0 L 320.0 195.0 L 318.0 193.0 L 320.0 191.0 L 317.0 192.0 L 318.0 188.0 L 316.0 186.0 L 318.0 184.0 L 315.0 185.0 L 316.0 181.0 L 313.0 178.0 L 315.0 174.0 L 313.0 176.0 Z M 90.0 166.0 L 84.0 168.0 L 76.0 180.0 L 76.0 183.0 L 80.0 181.0 L 79.0 183.0 L 82.0 182.0 L 86.0 187.0 L 85.0 197.0 L 81.0 199.0 L 75.0 197.0 L 75.0 194.0 L 72.0 193.0 L 67.0 206.0 L 62.0 209.0 L 63.0 211.0 L 59.0 217.0 L 57.0 215.0 L 59.0 220.0 L 56.0 219.0 L 58.0 224.0 L 55.0 224.0 L 57.0 228.0 L 54.0 228.0 L 56.0 232.0 L 53.0 233.0 L 52.0 253.0 L 50.0 253.0 L 48.0 293.0 L 49.0 339.0 L 54.0 371.0 L 53.0 377.0 L 55.0 377.0 L 54.0 382.0 L 56.0 382.0 L 55.0 387.0 L 57.0 387.0 L 57.0 395.0 L 60.0 398.0 L 59.0 402.0 L 61.0 402.0 L 64.0 409.0 L 62.0 412.0 L 65.0 412.0 L 66.0 420.0 L 68.0 420.0 L 66.0 423.0 L 68.0 422.0 L 67.0 425.0 L 69.0 424.0 L 70.0 429.0 L 72.0 429.0 L 71.0 432.0 L 74.0 434.0 L 72.0 437.0 L 74.0 435.0 L 74.0 438.0 L 76.0 438.0 L 77.0 441.0 L 75.0 443.0 L 78.0 442.0 L 77.0 444.0 L 79.0 444.0 L 78.0 446.0 L 82.0 450.0 L 80.0 452.0 L 82.0 450.0 L 82.0 453.0 L 85.0 454.0 L 84.0 456.0 L 91.0 459.0 L 95.0 455.0 L 102.0 457.0 L 100.0 459.0 L 104.0 458.0 L 109.0 463.0 L 114.0 463.0 L 115.0 469.0 L 117.0 467.0 L 115.0 462.0 L 113.0 463.0 L 111.0 460.0 L 111.0 451.0 L 113.0 459.0 L 114.0 457.0 L 103.0 421.0 L 120.0 387.0 L 121.0 396.0 L 121.0 383.0 L 120.0 386.0 L 117.0 384.0 L 118.0 379.0 L 120.0 379.0 L 120.0 381.0 L 112.0 359.0 L 113.0 356.0 L 111.0 356.0 L 112.0 353.0 L 110.0 353.0 L 109.0 343.0 L 107.0 343.0 L 107.0 336.0 L 105.0 336.0 L 105.0 329.0 L 103.0 329.0 L 104.0 325.0 L 102.0 325.0 L 101.0 311.0 L 99.0 310.0 L 93.0 261.0 L 93.0 243.0 L 91.0 240.0 L 93.0 169.0 Z M 69.0 250.0 L 79.0 256.0 L 81.0 263.0 L 80.0 321.0 L 89.0 389.0 L 81.0 387.0 L 92.0 394.0 L 96.0 410.0 L 98.0 410.0 L 99.0 426.0 L 93.0 432.0 L 83.0 431.0 L 75.0 422.0 L 74.0 416.0 L 72.0 416.0 L 73.0 413.0 L 70.0 410.0 L 71.0 396.0 L 75.0 390.0 L 73.0 387.0 L 76.0 386.0 L 69.0 384.0 L 63.0 377.0 L 58.0 357.0 L 55.0 327.0 L 56.0 273.0 L 60.0 257.0 Z M 67.0 250.0 L 69.0 247.0 L 74.0 248.0 Z M 70.0 207.0 L 76.0 208.0 L 81.0 212.0 L 83.0 220.0 L 81.0 237.0 L 74.0 246.0 L 66.0 245.0 L 62.0 237.0 L 60.0 237.0 L 61.0 221.0 L 63.0 222.0 L 63.0 215.0 Z M 283.0 159.0 L 282.0 165.0 L 284.0 167.0 L 276.0 176.0 L 288.0 175.0 L 286.0 172.0 L 287.0 163.0 L 283.0 162.0 Z M 335.0 156.0 L 337.0 163.0 L 332.0 166.0 L 333.0 172.0 L 330.0 173.0 L 330.0 171.0 L 334.0 184.0 L 333.0 188.0 L 335.0 188.0 L 334.0 191.0 L 336.0 191.0 L 336.0 197.0 L 338.0 197.0 L 338.0 203.0 L 340.0 203.0 L 339.0 206.0 L 342.0 205.0 L 341.0 209.0 L 343.0 210.0 L 341.0 213.0 L 343.0 211.0 L 343.0 216.0 L 344.0 214.0 L 345.0 216.0 L 347.0 205.0 L 350.0 207.0 L 350.0 200.0 L 348.0 200.0 L 350.0 196.0 L 347.0 197.0 L 348.0 194.0 L 346.0 192.0 L 348.0 189.0 L 345.0 189.0 L 346.0 187.0 Z M 273.0 125.0 L 276.0 136.0 L 279.0 133.0 L 281.0 136.0 L 280.0 132.0 L 282.0 130.0 L 287.0 130.0 L 291.0 133.0 L 295.0 130.0 L 295.0 127.0 L 294.0 129.0 L 290.0 125.0 Z M 115.0 111.0 L 108.0 118.0 L 107.0 125.0 L 104.0 127.0 L 100.0 152.0 L 104.0 134.0 L 107.0 133.0 L 112.0 125.0 L 113.0 127.0 L 117.0 114.0 Z" fill="#cddae2" fill-rule="evenodd"/>
<path d="M 129.0 786.0 L 126.0 801.0 L 133.0 817.0 L 145.0 825.0 L 152.0 826.0 L 161.0 822.0 L 164.0 809.0 L 156.0 792.0 L 148.0 788.0 Z M 138.0 784.0 L 169.0 789.0 L 190.0 789.0 L 175.0 788.0 L 175.0 786.0 L 178.0 786.0 L 154.0 785.0 L 154.0 783.0 L 148.0 784.0 L 147.0 782.0 Z M 114.0 771.0 L 150.0 781.0 L 172.0 783.0 L 201.0 782.0 L 154.0 781.0 Z M 81.0 754.0 L 81.0 786.0 L 86.0 810.0 L 96.0 833.0 L 105.0 845.0 L 118.0 857.0 L 141.0 869.0 L 163.0 875.0 L 184.0 876.0 L 165.0 875.0 L 137.0 867.0 L 119.0 857.0 L 104.0 843.0 L 96.0 832.0 L 85.0 805.0 L 81.0 782.0 L 82.0 755.0 L 84.0 757.0 L 84.0 774.0 L 84.0 767.0 L 86.0 767.0 L 91.0 802.0 L 98.0 819.0 L 107.0 832.0 L 123.0 847.0 L 139.0 856.0 L 160.0 862.0 L 178.0 863.0 L 161.0 862.0 L 140.0 856.0 L 120.0 844.0 L 106.0 830.0 L 98.0 818.0 L 91.0 800.0 L 87.0 780.0 L 87.0 758.0 Z M 105.0 705.0 L 107.0 713.0 L 115.0 721.0 L 123.0 725.0 L 138.0 727.0 L 132.0 726.0 L 129.0 717.0 L 115.0 704.0 L 107.0 703.0 Z M 150.0 681.0 L 143.0 680.0 L 139.0 683.0 L 139.0 693.0 L 141.0 695.0 L 146.0 694.0 L 150.0 690.0 Z M 290.0 677.0 L 285.0 697.0 L 278.0 711.0 L 253.0 736.0 L 263.0 729.0 L 278.0 712.0 L 285.0 698.0 Z M 301.0 672.0 L 298.0 691.0 L 289.0 715.0 L 277.0 732.0 L 256.0 748.0 L 270.0 739.0 L 287.0 719.0 L 296.0 699.0 Z M 267.0 676.0 L 257.0 670.0 L 246.0 673.0 L 239.0 685.0 L 242.0 696.0 L 239.0 687.0 L 245.0 675.0 L 248.0 687.0 L 253.0 690.0 L 259.0 689.0 L 263.0 684.0 L 263.0 680.0 L 252.0 672.0 L 262.0 672.0 L 269.0 682.0 Z M 85.0 655.0 L 82.0 660.0 L 86.0 670.0 L 95.0 671.0 L 102.0 664.0 L 104.0 665.0 L 100.0 672.0 L 100.0 680.0 L 103.0 689.0 L 109.0 697.0 L 118.0 701.0 L 131.0 697.0 L 135.0 690.0 L 135.0 677.0 L 127.0 667.0 Z M 60.0 629.0 L 58.0 663.0 L 63.0 699.0 L 72.0 722.0 L 82.0 734.0 L 107.0 750.0 L 139.0 761.0 L 168.0 765.0 L 189.0 765.0 L 209.0 762.0 L 188.0 765.0 L 168.0 764.0 L 170.0 762.0 L 166.0 759.0 L 164.0 752.0 L 190.0 753.0 L 164.0 752.0 L 125.0 744.0 L 107.0 737.0 L 87.0 725.0 L 75.0 711.0 L 69.0 695.0 L 65.0 672.0 L 64.0 643.0 L 64.0 678.0 L 61.0 660.0 L 61.0 671.0 L 59.0 671.0 L 60.0 633.0 L 62.0 629.0 L 88.0 644.0 L 84.0 644.0 L 85.0 647.0 L 80.0 650.0 L 66.0 642.0 L 78.0 650.0 L 100.0 658.0 L 133.0 665.0 L 174.0 666.0 L 221.0 662.0 L 172.0 665.0 L 172.0 663.0 L 177.0 663.0 L 178.0 660.0 L 171.0 659.0 L 226.0 653.0 L 192.0 657.0 L 129.0 655.0 L 94.0 646.0 Z M 74.0 715.0 L 76.0 714.0 L 95.0 731.0 L 115.0 740.0 L 115.0 751.0 L 110.0 751.0 L 90.0 739.0 L 91.0 734.0 L 87.0 729.0 L 81.0 729.0 Z M 90.0 584.0 L 88.0 591.0 L 92.0 599.0 L 107.0 609.0 L 101.0 590.0 L 95.0 585.0 Z M 153.0 573.0 L 143.0 572.0 L 138.0 574.0 L 130.0 585.0 L 131.0 597.0 L 141.0 607.0 L 131.0 597.0 L 131.0 583.0 L 134.0 579.0 L 134.0 594.0 L 134.0 584.0 L 137.0 580.0 L 139.0 589.0 L 145.0 593.0 L 150.0 593.0 L 155.0 589.0 L 156.0 585.0 L 144.0 573.0 L 156.0 575.0 L 162.0 583.0 L 159.0 577.0 Z M 91.0 558.0 L 87.0 564.0 L 89.0 576.0 L 102.0 585.0 L 111.0 582.0 L 114.0 576.0 L 111.0 564.0 L 103.0 558.0 Z M 234.0 548.0 L 212.0 551.0 L 198.0 550.0 L 209.0 575.0 L 214.0 575.0 L 206.0 554.0 L 201.0 552.0 Z M 262.0 539.0 L 240.0 546.0 L 251.0 545.0 L 254.0 564.0 L 270.0 557.0 L 257.0 563.0 L 255.0 562.0 L 253.0 549.0 L 250.0 544.0 Z M 259.0 503.0 L 249.0 510.0 L 230.0 518.0 L 204.0 521.0 L 213.0 528.0 L 222.0 528.0 L 246.0 516.0 Z M 252.0 510.0 L 238.0 521.0 L 222.0 528.0 L 216.0 529.0 L 206.0 523.0 L 207.0 521.0 L 227.0 519.0 L 250.0 509.0 Z M 192.0 483.0 L 182.0 490.0 L 176.0 507.0 L 178.0 524.0 L 185.0 536.0 L 197.0 536.0 L 186.0 512.0 L 187.0 493.0 Z M 187.0 534.0 L 192.0 531.0 L 196.0 534.0 Z M 50.0 475.0 L 45.0 495.0 L 43.0 544.0 L 48.0 584.0 L 55.0 602.0 L 81.0 622.0 L 117.0 635.0 L 145.0 638.0 L 160.0 635.0 L 175.0 627.0 L 184.0 617.0 L 191.0 598.0 L 190.0 580.0 L 181.0 563.0 L 167.0 552.0 L 153.0 548.0 L 110.0 542.0 L 85.0 530.0 L 68.0 515.0 L 55.0 493.0 Z M 185.0 611.0 L 186.0 613.0 L 181.0 621.0 L 170.0 629.0 L 168.0 627.0 Z M 50.0 477.0 L 52.0 479.0 L 50.0 484.0 L 51.0 494.0 L 59.0 513.0 L 67.0 524.0 L 90.0 545.0 L 98.0 549.0 L 123.0 555.0 L 158.0 556.0 L 166.0 559.0 L 176.0 568.0 L 182.0 581.0 L 183.0 600.0 L 177.0 614.0 L 171.0 620.0 L 161.0 626.0 L 144.0 629.0 L 109.0 624.0 L 84.0 615.0 L 60.0 596.0 L 54.0 582.0 L 50.0 557.0 L 50.0 531.0 L 53.0 519.0 L 47.0 496.0 Z M 259.0 425.0 L 252.0 424.0 L 246.0 427.0 L 235.0 438.0 L 230.0 447.0 L 230.0 456.0 L 234.0 461.0 L 242.0 462.0 L 254.0 452.0 L 262.0 434.0 Z M 161.0 418.0 L 159.0 445.0 L 152.0 460.0 L 140.0 469.0 L 110.0 474.0 L 137.0 477.0 L 149.0 482.0 L 155.0 488.0 L 160.0 502.0 L 162.0 534.0 L 166.0 501.0 L 171.0 489.0 L 179.0 481.0 L 196.0 475.0 L 230.0 472.0 L 196.0 471.0 L 181.0 467.0 L 168.0 452.0 Z M 259.0 397.0 L 250.0 405.0 L 237.0 424.0 L 254.0 411.0 Z M 321.0 365.0 L 317.0 388.0 L 315.0 388.0 L 315.0 378.0 L 302.0 410.0 L 288.0 436.0 L 296.0 423.0 L 301.0 424.0 L 303.0 421.0 L 304.0 424.0 L 292.0 446.0 L 280.0 461.0 L 294.0 443.0 L 308.0 416.0 L 317.0 390.0 Z M 301.0 329.0 L 298.0 329.0 L 288.0 341.0 L 263.0 399.0 L 262.0 416.0 L 266.0 426.0 L 271.0 430.0 L 279.0 429.0 L 287.0 422.0 L 299.0 398.0 L 306.0 360.0 L 305.0 338.0 Z M 50.0 255.0 L 47.0 287.0 L 48.0 341.0 L 55.0 386.0 L 67.0 424.0 L 55.0 386.0 L 49.0 349.0 L 47.0 293.0 Z M 74.0 247.0 L 69.0 248.0 L 69.0 251.0 L 61.0 257.0 L 57.0 273.0 L 56.0 327.0 L 58.0 349.0 L 64.0 377.0 L 69.0 383.0 L 77.0 386.0 L 74.0 387.0 L 76.0 390.0 L 72.0 396.0 L 74.0 415.0 L 83.0 429.0 L 93.0 431.0 L 97.0 425.0 L 97.0 416.0 L 93.0 397.0 L 85.0 389.0 L 89.0 390.0 L 86.0 381.0 L 79.0 321.0 L 80.0 263.0 L 78.0 256.0 L 73.0 252.0 L 75.0 251.0 L 72.0 249.0 Z M 360.0 237.0 L 367.0 281.0 L 370.0 348.0 L 366.0 397.0 L 361.0 423.0 L 358.0 428.0 L 360.0 427.0 L 365.0 405.0 L 370.0 362.0 L 369.0 300.0 Z M 313.0 236.0 L 311.0 239.0 L 312.0 253.0 L 317.0 264.0 L 321.0 265.0 L 324.0 259.0 L 323.0 249.0 L 317.0 238.0 Z M 321.0 246.0 L 324.0 256.0 L 322.0 264.0 L 319.0 265.0 L 316.0 261.0 L 319.0 257.0 L 317.0 256.0 Z M 346.0 229.0 L 353.0 264.0 L 357.0 311.0 L 357.0 377.0 L 349.0 430.0 L 355.0 401.0 L 357.0 370.0 L 360.0 369.0 L 359.0 380.0 L 359.0 373.0 L 362.0 372.0 L 362.0 368.0 L 366.0 370.0 L 366.0 376.0 L 368.0 329.0 L 365.0 290.0 L 362.0 292.0 L 358.0 291.0 L 358.0 301.0 L 356.0 301.0 L 353.0 263.0 Z M 76.0 209.0 L 71.0 209.0 L 67.0 213.0 L 63.0 223.0 L 62.0 236.0 L 64.0 242.0 L 68.0 245.0 L 76.0 244.0 L 81.0 233.0 L 82.0 220.0 L 80.0 213.0 Z M 300.0 204.0 L 300.0 226.0 L 296.0 258.0 L 281.0 314.0 L 267.0 344.0 L 249.0 371.0 L 250.0 347.0 L 246.0 313.0 L 258.0 305.0 L 253.0 301.0 L 249.0 301.0 L 239.0 311.0 L 240.0 348.0 L 233.0 390.0 L 221.0 419.0 L 208.0 438.0 L 187.0 459.0 L 186.0 462.0 L 199.0 466.0 L 203.0 456.0 L 256.0 386.0 L 279.0 350.0 L 289.0 330.0 L 300.0 294.0 L 304.0 268.0 L 305.0 233.0 Z M 78.0 184.0 L 75.0 193.0 L 78.0 197.0 L 83.0 198.0 L 85.0 189.0 L 81.0 184.0 Z M 280.0 161.0 L 273.0 164.0 L 267.0 170.0 L 266.0 175.0 L 280.0 204.0 L 286.0 208.0 L 285.0 213.0 L 278.0 220.0 L 269.0 223.0 L 270.0 219.0 L 279.0 213.0 L 276.0 204.0 L 269.0 208.0 L 259.0 220.0 L 272.0 250.0 L 272.0 254.0 L 269.0 254.0 L 275.0 259.0 L 270.0 265.0 L 262.0 268.0 L 264.0 258.0 L 267.0 256.0 L 264.0 253.0 L 259.0 255.0 L 248.0 266.0 L 250.0 276.0 L 262.0 304.0 L 263.0 301.0 L 268.0 301.0 L 267.0 307.0 L 269.0 293.0 L 259.0 270.0 L 270.0 265.0 L 278.0 254.0 L 278.0 240.0 L 271.0 223.0 L 280.0 219.0 L 285.0 214.0 L 287.0 199.0 L 278.0 179.0 L 289.0 176.0 L 275.0 176.0 L 283.0 167.0 Z M 75.0 116.0 L 58.0 145.0 L 39.0 191.0 L 26.0 241.0 L 20.0 294.0 L 21.0 346.0 L 29.0 397.0 L 45.0 442.0 L 64.0 472.0 L 60.0 455.0 L 42.0 412.0 L 34.0 381.0 L 29.0 343.0 L 28.0 301.0 L 32.0 253.0 L 41.0 210.0 L 59.0 160.0 L 79.0 123.0 Z M 56.0 449.0 L 61.0 458.0 L 61.0 468.0 L 52.0 454.0 Z M 121.0 108.0 L 114.0 112.0 L 106.0 122.0 L 97.0 158.0 L 93.0 202.0 L 94.0 261.0 L 99.0 300.0 L 110.0 346.0 L 129.0 392.0 L 151.0 425.0 L 153.0 438.0 L 157.0 422.0 L 157.0 411.0 L 154.0 427.0 L 142.0 401.0 L 146.0 416.0 L 125.0 383.0 L 131.0 367.0 L 150.0 397.0 L 155.0 402.0 L 151.0 397.0 L 153.0 396.0 L 170.0 413.0 L 157.0 400.0 L 143.0 380.0 L 127.0 348.0 L 111.0 297.0 L 105.0 258.0 L 105.0 178.0 L 112.0 134.0 Z M 117.0 111.0 L 118.0 114.0 L 114.0 127.0 L 112.0 126.0 L 108.0 133.0 L 105.0 134.0 L 100.0 153.0 L 99.0 148.0 L 106.0 123.0 Z M 270.0 46.0 L 281.0 112.0 L 272.0 121.0 L 272.0 130.0 L 282.0 159.0 L 288.0 163.0 L 287.0 172.0 L 289.0 155.0 L 281.0 132.0 L 276.0 137.0 L 272.0 128.0 L 273.0 124.0 L 290.0 124.0 L 294.0 128.0 L 296.0 127.0 L 296.0 130.0 L 292.0 133.0 L 297.0 131.0 L 293.0 107.0 L 283.0 75.0 L 284.0 71.0 L 317.0 139.0 L 343.0 219.0 L 330.0 176.0 L 332.0 172.0 L 331.0 166.0 L 337.0 160.0 L 353.0 207.0 L 359.0 235.0 L 347.0 186.0 L 322.0 120.0 L 294.0 71.0 Z M 92.0 41.0 L 90.0 64.0 L 83.0 83.0 L 76.0 90.0 L 67.0 94.0 L 42.0 96.0 L 66.0 100.0 L 74.0 104.0 L 83.0 113.0 L 90.0 129.0 L 93.0 151.0 L 97.0 123.0 L 107.0 107.0 L 126.0 99.0 L 151.0 97.0 L 125.0 95.0 L 108.0 89.0 L 99.0 77.0 Z M 167.0 22.0 L 148.0 31.0 L 128.0 46.0 L 104.0 71.0 L 110.0 80.0 L 144.0 42.0 L 144.0 46.0 L 135.0 58.0 L 120.0 86.0 L 130.0 90.0 L 143.0 58.0 Z" fill="#fafcfc" fill-rule="evenodd"/>
</svg>